<?xml version="1.0" encoding="UTF-8"?>
<svg version="1.1" xmlns="http://www.w3.org/2000/svg" width="734" height="132">
<path d="M0 0 C4.95 0 9.9 0 15 0 C15 2.64 15 5.28 15 8 C18.3 8 21.6 8 25 8 C25 29.78 25 51.56 25 74 C20.545 74.495 20.545 74.495 16 75 C15.67 76.98 15.34 78.96 15 81 C8.96026665 83.01324445 1.99840365 82.3483121 -4.33959961 82.4050293 C-6.14252979 82.42652932 -7.94535787 82.46053666 -9.74780273 82.50756836 C-29.39833634 83.01504009 -29.39833634 83.01504009 -37 76 C-44.56295702 67.79484954 -47.19850338 59.10295549 -47 48 C-45.82008742 39.94681022 -42.05726698 32.40610068 -35.78515625 27.140625 C-28.88158929 22.31616889 -22.35863879 21.10653087 -14 22 C-4.26465364 24.73534636 -4.26465364 24.73534636 -2 27 C-1.34 18.09 -0.68 9.18 0 0 Z M-15.25 36.9375 C-18 38 -18 38 -20.875 38.125 C-25.76374761 39.49384933 -28.49976336 42.65176236 -31 47 C-31.54109529 50.1029181 -31.45331988 52.89152083 -31 56 C-30.34 56 -29.68 56 -29 56 C-28.34 57.65 -27.68 59.3 -27 61 C-26.34 61 -25.68 61 -25 61 C-24.67 62.65 -24.34 64.3 -24 66 C-20.96792551 67.281674 -18.30649566 68.01942141 -15 68 C-11.27495363 66.11898368 -8.21200619 63.64125273 -5 61 C-4.34 60.67 -3.68 60.34 -3 60 C-1.9458482 56.83754459 -1.68724328 54.13051782 -1.4375 50.8125 C-1.35371094 49.72582031 -1.26992188 48.63914062 -1.18359375 47.51953125 C-1.09271484 46.27236328 -1.09271484 46.27236328 -1 45 C-2.093125 44.443125 -3.18625 43.88625 -4.3125 43.3125 C-7.71711923 41.39740168 -9.16330086 39.48006153 -11 36 C-13.09855769 35.87179487 -13.09855769 35.87179487 -15.25 36.9375 Z " fill="#131236" transform="translate(694,19)"/>
<path d="M0 0 C4.29 0 8.58 0 13 0 C26 31.77419355 26 31.77419355 26 39 C26.66 39 27.32 39 28 39 C28.0928125 37.48019531 28.0928125 37.48019531 28.1875 35.9296875 C29.04684039 29.06404192 31.69656362 22.61216407 34 16.125 C34.46944899 14.78149404 34.93820482 13.43774566 35.40625 12.09375 C38.79044491 2.41911018 38.79044491 2.41911018 40 0 C44.29 0 48.58 0 53 0 C56.69205862 9.24106981 60.26911439 18.50202057 63.4375 27.9375 C63.69611816 28.69981934 63.95473633 29.46213867 64.22119141 30.24755859 C65.22293807 33.27751612 66 35.78712588 66 39 C66.66 39 67.32 39 68 39 C68.06316406 37.824375 68.12632812 36.64875 68.19140625 35.4375 C68.90754497 29.01364761 71.09810696 23.04759337 73.23803711 16.98583984 C73.94437873 14.98047066 74.63220718 12.96938661 75.31835938 10.95703125 C75.76194774 9.67931444 76.20657092 8.40195632 76.65234375 7.125 C77.05445068 5.97257812 77.45655762 4.82015625 77.87084961 3.6328125 C79 1 79 1 81 0 C83.04055005 -0.07065617 85.08334257 -0.08421976 87.125 -0.0625 C88.22070312 -0.05347656 89.31640625 -0.04445312 90.4453125 -0.03515625 C91.70988281 -0.01775391 91.70988281 -0.01775391 93 0 C93.74725598 7.24101572 91.0590996 13.29394848 88.5625 20 C88.11527588 21.22501221 87.66805176 22.45002441 87.20727539 23.7121582 C75.02644028 56.97355972 75.02644028 56.97355972 73 59 C70.65012738 59.23527773 68.29443961 59.41386417 65.9375 59.5625 C64.64714844 59.64628906 63.35679687 59.73007813 62.02734375 59.81640625 C61.02832031 59.87699219 60.02929688 59.93757813 59 60 C56.27713113 53.62528346 53.96137456 47.12837947 51.75 40.5625 C51.47978027 39.76924316 51.20956055 38.97598633 50.93115234 38.15869141 C50.68059082 37.4063623 50.4300293 36.6540332 50.171875 35.87890625 C49.9459668 35.2041626 49.72005859 34.52941895 49.48730469 33.83422852 C49 32 49 32 49 29 C45.98283157 29.30834699 45.98283157 29.30834699 43 31 C42.31027943 32.82979291 42.31027943 32.82979291 42.02734375 35.00390625 C41.05234688 40.0987727 39.36588293 44.6969349 37.4375 49.5 C37.12103516 50.30953125 36.80457031 51.1190625 36.47851562 51.953125 C34.14745146 57.85254854 34.14745146 57.85254854 33 59 C30.65012738 59.23527773 28.29443961 59.41386417 25.9375 59.5625 C24.64714844 59.64628906 23.35679688 59.73007813 22.02734375 59.81640625 C21.02832031 59.87699219 20.02929688 59.93757813 19 60 C15.39352099 51.40341562 12.33257112 42.61709744 9.25390625 33.82202148 C8.37295367 31.30665715 7.48748377 28.79291493 6.6015625 26.27929688 C6.03358441 24.66155302 5.46586699 23.04371761 4.8984375 21.42578125 C4.63694916 20.68395096 4.37546082 19.94212067 4.10604858 19.17781067 C1.82328635 12.64036165 0 7.03429963 0 0 Z " fill="#171539" transform="translate(83,41)"/>
<path d="M0 0 C4.95 0 9.9 0 15 0 C15.66 8.91 16.32 17.82 17 27 C19.31 25.68 21.62 24.36 24 23 C31.53115723 20.70434399 42.0453202 21.70197494 49.2578125 24.859375 C55.1755541 28.73377085 59.40955615 35.06066383 61.5546875 41.72265625 C63.17859339 50.02736794 63.17537174 60.46360206 59 68 C54.64561997 74.32421861 48.84472094 79.95375352 41.16015625 81.61328125 C25.45406325 83.53528769 25.45406325 83.53528769 19 79 C18.34 78.34 17.68 77.68 17 77 C16.34 78.32 15.68 79.64 15 81 C10.05 81 5.1 81 0 81 C0 54.27 0 27.54 0 0 Z M18 42.5625 C16.24752019 48.58664934 16.17489194 54.37906852 18.0625 60.375 C20.61140395 63.82835373 23.42363468 65.63824932 27 68 C27 68.33 27 68.66 27 69 C28.5843317 68.91231752 30.16753567 68.80412671 31.75 68.6875 C32.63171875 68.62949219 33.5134375 68.57148437 34.421875 68.51171875 C37.36232126 67.92808472 38.81587829 67.0252765 41 65 C41.79623822 62.90584196 41.79623822 62.90584196 42 61 C42.66 61 43.32 61 44 61 C44.12375 59.88625 44.2475 58.7725 44.375 57.625 C45 54 45 54 47 52 C46.92379991 47.42799472 46.59699124 44.27130423 43.75 40.625 C39.8360196 36.8889278 37.53892886 36.15137005 32.1875 35.625 C26.31649926 35.80290911 21.62037044 37.92390037 18 42.5625 Z " fill="#181739" transform="translate(245,19)"/>
<path d="M0 0 C5.98062859 6.68423195 7.86860394 12.81393488 7.61328125 21.66015625 C7.60620651 22.60185165 7.59913177 23.54354706 7.59184265 24.51377869 C7.56409855 27.48919855 7.50139987 30.46265961 7.4375 33.4375 C7.41239122 35.46807157 7.3895826 37.49867296 7.36914062 39.52929688 C7.3143377 44.47860668 7.22820679 49.42647254 7.125 54.375 C3.97569107 55.42476964 1.73685544 55.47631595 -1.5625 55.4375 C-2.55636719 55.42847656 -3.55023437 55.41945312 -4.57421875 55.41015625 C-5.71310547 55.39275391 -5.71310547 55.39275391 -6.875 55.375 C-7.37 53.395 -7.37 53.395 -7.875 51.375 C-8.39449219 51.65214844 -8.91398438 51.92929688 -9.44921875 52.21484375 C-17.11459001 56.19630276 -24.42805885 57.63434872 -33.0546875 55.94921875 C-38.49141622 54.22511995 -42.45392374 50.90561451 -45.875 46.375 C-48.90137961 40.23175102 -48.89643196 33.43929587 -46.75 27 C-42.78835986 21.4537038 -38.07908633 18.73255281 -31.875 16.375 C-34.0986068 15.0768576 -34.0986068 15.0768576 -37.875 15.375 C-37.875 14.385 -37.875 13.395 -37.875 12.375 C-38.535 12.375 -39.195 12.375 -39.875 12.375 C-40.21519152 10.98082227 -40.54681779 9.58455342 -40.875 8.1875 C-41.060625 7.41019531 -41.24625 6.63289063 -41.4375 5.83203125 C-41.88922743 3.29509775 -41.94807143 0.94620097 -41.875 -1.625 C-27.95671853 -5.17860378 -13.10592187 -7.40769497 0 0 Z M-29.39453125 32.2265625 C-31.13366651 34.30062049 -31.13366651 34.30062049 -30.8125 37 C-30.00844454 39.69789761 -30.00844454 39.69789761 -26.875 41.375 C-21.00554703 41.86412108 -16.96268683 41.4276121 -11.875 38.375 C-10.25192014 35.42679416 -10.25192014 35.42679416 -9.875 32.375 C-10.205 31.715 -10.535 31.055 -10.875 30.375 C-13.45945773 30.2668134 -16.03937352 30.18762763 -18.625 30.125 C-19.71941406 30.07472656 -19.71941406 30.07472656 -20.8359375 30.0234375 C-24.43247504 29.95804591 -26.45600144 30.06708478 -29.39453125 32.2265625 Z " fill="#17143A" transform="translate(541.875,45.625)"/>
<path d="M0 0 C3.79771137 3.3108253 6.47179353 6.12353641 7.4375 11.125 C7.53299549 13.9759908 7.57757216 16.80162777 7.5703125 19.65234375 C7.57126923 20.4782753 7.57222595 21.30420685 7.57321167 22.15516663 C7.57389113 23.89926225 7.57205318 25.64336043 7.56787109 27.38745117 C7.56252635 30.04937458 7.5678205 32.71112875 7.57421875 35.37304688 C7.57355779 37.07031287 7.57227627 38.76757876 7.5703125 40.46484375 C7.57233673 41.25769272 7.57436096 42.05054169 7.57644653 42.86741638 C7.55972686 46.8323018 7.2221922 50.20153899 6.4375 54.125 C2.4775 54.125 -1.4825 54.125 -5.5625 54.125 C-5.8925 53.135 -6.2225 52.145 -6.5625 51.125 C-8.5787233 51.84063266 -8.5787233 51.84063266 -10.5625 53.125 C-11.21729552 55.16006426 -11.21729552 55.16006426 -11.5625 57.125 C-22.94561948 57.6003971 -31.54946867 57.45218954 -41.5 51.3125 C-46.18662653 46.3418355 -47.72949134 39.84043731 -47.5625 33.125 C-45.92640629 27.09190445 -42.68137769 23.4992806 -37.5625 20.125 C-33.83301613 18.36556635 -30.9346986 17.88572515 -26.82421875 17.9296875 C-25.22416992 17.93935547 -25.22416992 17.93935547 -23.59179688 17.94921875 C-22.48900391 17.96597656 -21.38621094 17.98273437 -20.25 18 C-19.12787109 18.00902344 -18.00574219 18.01804687 -16.84960938 18.02734375 C-14.08702091 18.05085514 -11.32487068 18.08371845 -8.5625 18.125 C-9.16433749 16.10454558 -9.83556096 14.10388961 -10.5625 12.125 C-12.97493177 10.91878411 -14.51866605 10.99578611 -17.2109375 10.9921875 C-18.13390625 10.99089844 -19.056875 10.98960938 -20.0078125 10.98828125 C-21.45800781 10.99408203 -21.45800781 10.99408203 -22.9375 11 C-23.8965625 10.99613281 -24.855625 10.99226563 -25.84375 10.98828125 C-26.76929688 10.98957031 -27.69484375 10.99085937 -28.6484375 10.9921875 C-29.4945459 10.99331543 -30.3406543 10.99444336 -31.21240234 10.99560547 C-33.46091044 11.11940656 -35.40540574 11.49846584 -37.5625 12.125 C-38.86175791 7.79414029 -39.906121 3.61025648 -40.5625 -0.875 C-27.81026398 -5.47274496 -12.22852174 -7.65449453 0 0 Z " fill="#0F0C34" transform="translate(225.5625,44.875)"/>
<path d="M0 0 C6.51111475 6.65909463 7.3089516 13.29094086 7.23046875 22.1796875 C7.23001053 23.03305695 7.22955231 23.88642639 7.2290802 24.76565552 C7.22607612 26.55569869 7.21824561 28.34573968 7.20581055 30.13574219 C7.18741669 32.8874628 7.18530206 35.63884898 7.18554688 38.390625 C7.18063617 40.13281543 7.17480981 41.87500358 7.16796875 43.6171875 C7.16685593 44.44314423 7.1657431 45.26910095 7.16459656 46.12008667 C7.11609322 51.88390678 7.11609322 51.88390678 6 53 C3.64547212 52.99406172 1.29100759 52.9445618 -1.0625 52.875 C-6.25995561 52.78240585 -10.31331934 53.16514516 -15.0546875 55.3203125 C-22.43482721 57.89891553 -31.01854422 55.93423504 -38 53 C-42.35986043 50.34617191 -45.41645544 46.88612413 -47 42 C-47.71690336 36.2575317 -48.08317481 30.24030276 -45.4375 24.9375 C-41.79345222 20.54595524 -37.66897181 18.0817004 -32 17 C-30.19418245 16.92008896 -28.38568191 16.89230177 -26.578125 16.90234375 C-25.55332031 16.90556641 -24.52851563 16.90878906 -23.47265625 16.91210938 C-22.40917969 16.92048828 -21.34570312 16.92886719 -20.25 16.9375 C-19.17105469 16.94201172 -18.09210938 16.94652344 -16.98046875 16.95117188 C-14.32025617 16.96294273 -11.66015635 16.97938601 -9 17 C-10.52206009 14.37098712 -11.84365964 12.15634036 -14 10 C-15.9515159 9.70686673 -15.9515159 9.70686673 -18.17578125 9.76953125 C-19.41811523 9.77243164 -19.41811523 9.77243164 -20.68554688 9.77539062 C-21.98588867 9.79375977 -21.98588867 9.79375977 -23.3125 9.8125 C-24.16779297 9.81314453 -25.02308594 9.81378906 -25.90429688 9.81445312 C-29.38708521 9.83873283 -32.56524594 9.90712331 -35.98046875 10.63671875 C-36.64691406 10.75660156 -37.31335938 10.87648438 -38 11 C-40.58926331 8.41073669 -40.37398043 6.97294721 -40.625 3.375 C-40.69976562 2.37210938 -40.77453125 1.36921875 -40.8515625 0.3359375 C-40.90054687 -0.43492188 -40.94953125 -1.20578125 -41 -2 C-27.4133482 -7.74819884 -12.41259471 -9.37168684 0 0 Z M-30 33 C-30.91666667 35.5 -30.91666667 35.5 -30 38 C-27.80367559 40.70880011 -26.07611171 41.82535236 -22.6171875 42.38671875 C-18.39400421 42.56951325 -15.664072 42.34531744 -11.875 40.375 C-9.52184696 37.39433949 -9.57877331 35.70679491 -10 32 C-16.68161098 28.27430909 -24.26402514 27.26402514 -30 33 Z " fill="#121335" transform="translate(451,46)"/>
<path d="M0 0 C7.05813565 4.69416677 11.19727126 10.0438668 14 18 C14 23.28 14 28.56 14 34 C0.47 34 -13.06 34 -27 34 C-23.24697734 39.99854396 -23.24697734 39.99854396 -18 44 C-12.02327062 45.12206797 -8.01932009 43.71906672 -2.84375 40.84375 C-1 40 -1 40 2.1875 39.9375 C5.80378566 41.30365236 7.65372361 42.94273076 10 46 C9.921875 47.94140625 9.921875 47.94140625 9 50 C6.92578125 51.8515625 6.92578125 51.8515625 4.3125 53.625 C3.46300781 54.21539062 2.61351562 54.80578125 1.73828125 55.4140625 C-5.848434 59.80808018 -14.30558987 60.33375384 -22.78515625 58.34765625 C-32.12905686 54.98269668 -37.89335511 49.33477865 -42.08984375 40.4296875 C-45.1123571 32.36100379 -45.10811084 23.17310544 -42.04296875 15.12890625 C-38.44341244 7.7814973 -32.87286026 1.5134426 -25.3125 -1.8125 C-17.11098328 -4.54633891 -7.75449859 -3.72065603 0 0 Z M-22 14 C-24.46872947 16.61656956 -24.46872947 16.61656956 -25 20 C-21.87240007 21.56379996 -18.50147593 21.46065462 -15.0625 21.6875 C-14.33353516 21.74744141 -13.60457031 21.80738281 -12.85351562 21.86914062 C-8.94638518 22.13057098 -7.34750622 22.23167081 -4 20 C-4.53977565 16.52451159 -4.53977565 16.52451159 -6 13 C-11.95756375 10.02121812 -16.39572482 10.66128287 -22 14 Z " fill="#1A193A" transform="translate(356,43)"/>
<path d="M0 0 C0.71994141 -0.03738281 1.43988281 -0.07476562 2.18164062 -0.11328125 C4.28515625 -0.1484375 4.28515625 -0.1484375 7.9375 0.375 C11.59088922 4.42628309 11.3776297 8.44875069 11.23046875 13.6484375 C10.68551616 18.72012961 9.01650677 23.0729469 4.9375 26.375 C5.56245361 26.92188477 6.18740723 27.46876953 6.83129883 28.03222656 C12.79796317 34.66907727 12.50344745 46.11960324 12.75 54.625 C12.78496582 55.70749023 12.81993164 56.78998047 12.85595703 57.90527344 C13.37852108 79.99757233 13.37852108 79.99757233 8.83984375 86.27734375 C5.20672256 88.9031662 2.42587932 88.95501881 -1.875 88.6875 C-2.56787109 88.66494141 -3.26074219 88.64238281 -3.97460938 88.61914062 C-5.67151573 88.56062661 -7.36729861 88.4709548 -9.0625 88.375 C-12.62256214 82.98506593 -13.69322579 79.09540389 -13.8125 72.6875 C-13.85479736 71.49785645 -13.85479736 71.49785645 -13.89794922 70.28417969 C-13.97322305 67.98108113 -14.02188824 65.67893615 -14.0625 63.375 C-14.09085938 62.27027344 -14.11921875 61.16554687 -14.1484375 60.02734375 C-14.42345842 39.5932891 -14.42345842 39.5932891 -10.0625 31.375 C-9.39583333 27.875 -9.39583333 27.875 -10.0625 24.375 C-11.35312662 23.01984205 -12.64394 21.66485818 -13.9375 20.3125 C-16.45388518 15.97872552 -15.80752859 10.18043444 -15.0625 5.375 C-13.74705885 2.9767262 -12.89976104 1.73632379 -10.37890625 0.6484375 C-6.91904446 0.24002211 -3.47949327 0.06890086 0 0 Z " fill="#77E62D" transform="translate(634.0625,14.625)"/>
<path d="M0 0 C4.62 0 9.24 0 14 0 C15.30863028 2.61726057 15.14144488 4.56913747 15.16113281 7.50024414 C15.17074036 8.65226822 15.1803479 9.8042923 15.19024658 10.9912262 C15.19449646 12.24322311 15.19874634 13.49522003 15.203125 14.78515625 C15.20882507 16.07054794 15.21452515 17.35593964 15.22039795 18.68028259 C15.23091293 21.40819697 15.23675089 24.13608187 15.24023438 26.86401367 C15.24569018 30.33835217 15.26965251 33.81229301 15.29820633 37.28650761 C15.32147351 40.61938181 15.32329315 43.95220514 15.328125 47.28515625 C15.3404718 48.52298355 15.3528186 49.76081085 15.36553955 51.03614807 C15.34010467 60.98677645 14.20826115 68.79173885 7 76 C2.94735482 77.35088173 -0.81845796 77.223454 -5.0625 77.25 C-5.89072266 77.270625 -6.71894531 77.29125 -7.57226562 77.3125 C-8.76045898 77.32023437 -8.76045898 77.32023437 -9.97265625 77.328125 C-10.69718994 77.3374707 -11.42172363 77.34681641 -12.16821289 77.35644531 C-12.77270264 77.23881836 -13.37719238 77.12119141 -14 77 C-16 74 -16 74 -15.6796875 71.5546875 C-15.41414063 70.67039062 -15.14859375 69.78609375 -14.875 68.875 C-14.62492187 67.98554687 -14.37484375 67.09609375 -14.1171875 66.1796875 C-13 64 -13 64 -11.3203125 63.1953125 C-8.21101021 62.93358672 -5.11893105 62.98865183 -2 63 C-1.98969254 62.43196152 -1.97938507 61.86392303 -1.96876526 61.27867126 C-1.85940032 55.29108111 -1.74493251 49.30360299 -1.62768555 43.31616211 C-1.58474711 41.09060034 -1.54304934 38.86501424 -1.50268555 36.6394043 C-1.27974939 24.39442946 -0.95539709 12.21141995 0 0 Z " fill="#1D1D3D" transform="translate(33,42)"/>
<path d="M0 0 C1.39702148 0.00966797 1.39702148 0.00966797 2.82226562 0.01953125 C3.78197266 0.03628906 4.74167969 0.05304687 5.73046875 0.0703125 C6.70951172 0.07933594 7.68855469 0.08835938 8.69726562 0.09765625 C11.10441936 0.12114068 13.51106618 0.1539841 15.91796875 0.1953125 C15.58796875 1.5153125 15.25796875 2.8353125 14.91796875 4.1953125 C15.57796875 4.5253125 16.23796875 4.8553125 16.91796875 5.1953125 C16.91796875 5.8553125 16.91796875 6.5153125 16.91796875 7.1953125 C18.89796875 7.1953125 20.87796875 7.1953125 22.91796875 7.1953125 C25.06433977 10.77259753 25.70680118 14.04235029 25.91796875 18.1953125 C25.10405972 20.64197236 24.01918725 22.85522318 22.91796875 25.1953125 C23.41296875 26.1853125 23.41296875 26.1853125 23.91796875 27.1953125 C23.29148438 27.32808594 22.665 27.46085937 22.01953125 27.59765625 C21.20226562 27.77425781 20.385 27.95085937 19.54296875 28.1328125 C18.73085937 28.30683594 17.91875 28.48085937 17.08203125 28.66015625 C14.88850575 29.11861943 14.88850575 29.11861943 12.91796875 30.1953125 C10.20534759 30.4275771 7.51023749 30.61467485 4.79296875 30.7578125 C3.66181641 30.82258789 3.66181641 30.82258789 2.5078125 30.88867188 C0.64474987 30.9947957 -1.21861649 31.09556251 -3.08203125 31.1953125 C-2.42203125 32.5153125 -1.76203125 33.8353125 -1.08203125 35.1953125 C4.85796875 35.1953125 10.79796875 35.1953125 16.91796875 35.1953125 C16.58796875 36.5153125 16.25796875 37.8353125 15.91796875 39.1953125 C4.53484927 39.6707096 -4.06899992 39.52250204 -14.01953125 33.3828125 C-18.70615778 28.412148 -20.24902259 21.91074981 -20.08203125 15.1953125 C-18.44593754 9.16221695 -15.20090894 5.5695931 -10.08203125 2.1953125 C-6.5717719 0.56880671 -3.8599681 -0.04736157 0 0 Z " fill="#19133A" transform="translate(198.08203125,62.8046875)"/>
<path d="M0 0 C1.093125 0.00257812 2.18625 0.00515625 3.3125 0.0078125 C4.405625 0.00523438 5.49875 0.00265625 6.625 0 C9.3125 0.1328125 9.3125 0.1328125 10.3125 1.1328125 C10.42771554 3.18136755 10.47219343 5.23392505 10.48950195 7.28564453 C10.50233719 8.60436554 10.51517242 9.92308655 10.52839661 11.2817688 C10.53656636 12.73471706 10.54400964 14.18766955 10.55078125 15.640625 C10.55485678 16.37015255 10.5589323 17.0996801 10.56313133 17.85131454 C10.58402024 21.71727976 10.59830608 25.58320925 10.60766602 29.44921875 C10.61869836 33.43391954 10.65305247 37.41805691 10.69283772 41.40255928 C10.71905989 44.47218829 10.72736308 47.54168472 10.73094749 50.61141586 C10.73580405 52.07936252 10.74739152 53.54730361 10.76598549 55.01514053 C10.93572113 69.31035263 10.93572113 69.31035263 6.3125 75.1328125 C1.50630458 79.48127502 -3.38860319 80.25203452 -9.6875 80.1328125 C-15.683171 79.1371415 -15.683171 79.1371415 -17.6875 77.1328125 C-17.6015625 75.13671875 -17.6015625 75.13671875 -17.3125 72.6953125 C-17.22226562 71.89222656 -17.13203125 71.08914062 -17.0390625 70.26171875 C-16.6875 68.1328125 -16.6875 68.1328125 -15.6875 66.1328125 C-13.40234375 65.5 -13.40234375 65.5 -10.625 65.0078125 C-9.70589844 64.84023437 -8.78679687 64.67265625 -7.83984375 64.5 C-7.12957031 64.37882812 -6.41929687 64.25765625 -5.6875 64.1328125 C-4.84599627 60.45631026 -4.54450212 57.02516269 -4.49804688 53.25683594 C-4.48132935 52.09923767 -4.46461182 50.9416394 -4.4473877 49.7489624 C-4.43381226 48.50922668 -4.42023682 47.26949097 -4.40625 45.9921875 C-4.38784058 44.71426331 -4.36943115 43.43633911 -4.35046387 42.11968994 C-4.28174809 37.34540221 -4.22108317 32.57103876 -4.16143799 27.79663086 C-4.10254039 23.1117317 -4.03644039 18.42696964 -3.96875 13.7421875 C-3.94838684 11.87043854 -3.94838684 11.87043854 -3.9276123 9.96087646 C-3.91089478 8.81588684 -3.89417725 7.67089722 -3.87695312 6.49121094 C-3.85816101 4.97161774 -3.85816101 4.97161774 -3.83898926 3.42132568 C-3.61904862 0.0987334 -3.35989787 0.16604146 0 0 Z " fill="#141534" transform="translate(474.6875,40.8671875)"/>
<path d="M0 0 C1.79244141 0.01740234 1.79244141 0.01740234 3.62109375 0.03515625 C5.41740234 0.04869141 5.41740234 0.04869141 7.25 0.0625 C8.17683594 0.07410156 9.10367188 0.08570313 10.05859375 0.09765625 C11.04859375 2.40765625 12.03859375 4.71765625 13.05859375 7.09765625 C13.53167969 6.67613281 14.00476563 6.25460938 14.4921875 5.8203125 C19.45017307 1.71281958 23.52211321 -0.23131323 30.05859375 0.09765625 C31.05859375 1.09765625 31.05859375 1.09765625 31.15625 4.0390625 C31.14464844 5.23402344 31.13304687 6.42898437 31.12109375 7.66015625 C31.11207031 8.85769531 31.10304688 10.05523437 31.09375 11.2890625 C31.08214844 12.21589844 31.07054687 13.14273438 31.05859375 14.09765625 C29.61226562 14.71640625 29.61226562 14.71640625 28.13671875 15.34765625 C26.86006929 15.92965821 25.58406065 16.51306725 24.30859375 17.09765625 C23.674375 17.36449219 23.04015625 17.63132812 22.38671875 17.90625 C18.08243163 19.92388459 15.67134424 22.09148405 13.77441406 26.484375 C12.16010999 32.37779615 12.08248588 38.5235276 11.80859375 44.59765625 C11.7320842 46.00659907 11.65397238 47.41545584 11.57421875 48.82421875 C11.38662128 52.24787261 11.22047027 55.67268989 11.05859375 59.09765625 C6.10859375 59.09765625 1.15859375 59.09765625 -3.94140625 59.09765625 C-3.96396174 51.55267036 -3.98232394 44.00769694 -3.99321842 36.46268559 C-3.99844614 32.9595674 -4.00554175 29.4564734 -4.0168457 25.95336914 C-4.02974831 21.92984784 -4.03463537 17.90635211 -4.0390625 13.8828125 C-4.04680443 11.98753563 -4.04680443 11.98753563 -4.05470276 10.05397034 C-4.05477829 8.89284225 -4.05485382 7.73171417 -4.05493164 6.53540039 C-4.05826256 4.99318565 -4.05826256 4.99318565 -4.06166077 3.41981506 C-3.88084026 -0.07189528 -3.55382486 0.11798887 0 0 Z " fill="#161634" transform="translate(563.94140625,40.90234375)"/>
<path d="M0 0 C4.95 0 9.9 0 15 0 C15 26.73 15 53.46 15 81 C10.05 81 5.1 81 0 81 C0 54.27 0 27.54 0 0 Z " fill="#1D1E3B" transform="translate(380,19)"/>
<path d="M0 0 C5.28 0 10.56 0 16 0 C16 5.28 16 10.56 16 16 C13.69 16.33 11.38 16.66 9 17 C8.67 18.98 8.34 20.96 8 23 C10.64 23 13.28 23 16 23 C16 42.14 16 61.28 16 81 C11.05 81 6.1 81 1 81 C1 60.66666667 1 40.33333333 1 20 C0.83701416 19.35836914 0.67402832 18.71673828 0.50610352 18.05566406 C-0.32764908 14.66917259 -0.10200053 11.21625884 -0.0625 7.75 C-0.041875 5.1925 -0.02125 2.635 0 0 Z " fill="#1F1E3E" transform="translate(59,19)"/>
<path d="M0 0 C3.3 0 6.6 0 10 0 C10 21.78 10 43.56 10 66 C5.545 66.495 5.545 66.495 1 67 C0.67 68.98 0.34 70.96 0 73 C-3.47782583 74.15927528 -6.18803257 74.11313066 -9.85546875 74.09765625 C-10.84792351 74.09553383 -10.84792351 74.09553383 -11.86042786 74.09336853 C-13.96949828 74.08777996 -16.07846177 74.07522965 -18.1875 74.0625 C-19.61913909 74.05748352 -21.05077985 74.05292087 -22.48242188 74.04882812 C-25.98831588 74.0378143 -29.4941475 74.02055755 -33 74 C-33 73.34 -33 72.68 -33 72 C-32.19175781 71.82984375 -31.38351562 71.6596875 -30.55078125 71.484375 C-22.3004844 69.95761247 -22.3004844 69.95761247 -16 65 C-15.31718262 61.66469971 -15.07136765 58.39969548 -15 55 C-15.66 55 -16.32 55 -17 55 C-16.6875 53.125 -16.6875 53.125 -16 51 C-12.35581659 48.57054439 -11.07076636 48.9171219 -6.8125 49.375 C-5.72582031 49.48585937 -4.63914062 49.59671875 -3.51953125 49.7109375 C-2.68808594 49.80632812 -1.85664062 49.90171875 -1 50 C-1.00222061 49.38834488 -1.00444122 48.77668976 -1.00672913 48.14649963 C-1.02878122 41.80429669 -1.04390627 35.46210456 -1.05493164 29.11987305 C-1.05997341 26.75007688 -1.06680665 24.38028385 -1.07543945 22.01049805 C-1.0875119 18.61245961 -1.09322971 15.21446215 -1.09765625 11.81640625 C-1.10281754 10.74975235 -1.10797882 9.68309845 -1.11329651 8.5841217 C-1.11340981 7.11270973 -1.11340981 7.11270973 -1.11352539 5.61157227 C-1.115746 4.74331314 -1.11796661 3.87505402 -1.12025452 2.98048401 C-1 1 -1 1 0 0 Z " fill="#B647DC" transform="translate(709,27)"/>
<path d="M0 0 C4.95 0 9.9 0 15 0 C14.67 19.14 14.34 38.28 14 58 C13.34 57.67 12.68 57.34 12 57 C12 56.34 12 55.68 12 55 C7.68803391 54.05675742 3.37934119 53.51958285 -1 53 C-1.33 53.99 -1.66 54.98 -2 56 C-1.91878906 55.33613281 -1.83757813 54.67226562 -1.75390625 53.98828125 C-1.55345238 51.18601801 -1.50145876 48.76967356 -2 46 C-3.6305769 44.24531095 -5.23094723 43.26898439 -7.30859375 42.09375 C-9.71146858 40.53992794 -10.30440828 38.70507892 -11 36 C-9.53515625 34.828125 -8.0703125 33.65625 -6.60546875 32.484375 C-2.62926697 28.80808138 -1.60229123 26.12967233 -1.26953125 20.703125 C-1.18896484 19.49785156 -1.10839844 18.29257812 -1.02539062 17.05078125 C-0.92000977 15.16939453 -0.92000977 15.16939453 -0.8125 13.25 C-0.73064453 11.98027344 -0.64878906 10.71054687 -0.56445312 9.40234375 C-0.3642005 6.26897912 -0.1805135 3.13456375 0 0 Z " fill="#131236" transform="translate(694,19)"/>
<path d="M0 0 C0.99 0 1.98 0 3 0 C3 0.99 3 1.98 3 3 C3.721875 2.505 4.44375 2.01 5.1875 1.5 C8.21820077 -0.11637374 9.63514653 -0.43139147 13 0 C14.33333333 0.66666667 15.66666667 1.33333333 17 2 C19.66709069 2.16750414 19.66709069 2.16750414 22 2 C21.175 2.556875 20.35 3.11375 19.5 3.6875 C16.80070881 5.74252319 16.80070881 5.74252319 16.4375 8.5625 C16.78657358 11.09783857 16.78657358 11.09783857 18.71875 12.6328125 C21.40205049 14.24095492 22.95886554 14.37335558 26.0625 14.3125 C26.91972656 14.30863281 27.77695312 14.30476563 28.66015625 14.30078125 C31.26887304 14.14148154 31.26887304 14.14148154 34 12 C35.65 12 37.3 12 39 12 C39 16.29 39 20.58 39 25 C28.98415789 29.64502822 20.70838869 30.51267715 10.15625 26.90625 C5.37674415 24.89747218 2.19776061 21.85161031 -0.28125 17.2734375 C-1.86406645 12.26692026 -2.39046771 4.78093543 0 0 Z " fill="#131438" transform="translate(405,73)"/>
<path d="M0 0 C6.74416778 6.74416778 6.54873216 18.1507224 6.8125 27.25 C6.84746582 28.33249023 6.88243164 29.41498047 6.91845703 30.53027344 C7.44102108 52.62257233 7.44102108 52.62257233 2.90234375 58.90234375 C-0.73077744 61.5281662 -3.51162068 61.58001881 -7.8125 61.3125 C-8.50537109 61.28994141 -9.19824219 61.26738281 -9.91210938 61.24414062 C-11.60901573 61.18562661 -13.30479861 61.0959548 -15 61 C-18.56006214 55.61006593 -19.63072579 51.72040389 -19.75 45.3125 C-19.77819824 44.5194043 -19.80639648 43.72630859 -19.83544922 42.90917969 C-19.91072305 40.60608113 -19.95938824 38.30393615 -20 36 C-20.02835938 34.89527344 -20.05671875 33.79054687 -20.0859375 32.65234375 C-20.336837 14.010511 -20.336837 14.010511 -18 7 C-16.68 7.33 -15.36 7.66 -14 8 C-13.38850295 24.33640403 -12.81466222 40.64908956 -13 57 C-8.71 57 -4.42 57 0 57 C0 38.19 0 19.38 0 0 Z " fill="#D0F2B8" transform="translate(640,42)"/>
<path d="M0 0 C0 0.66 0 1.32 0 2 C0.99 2 1.98 2 3 2 C3 2.66 3 3.32 3 4 C3.66 4 4.32 4 5 4 C5 5.65 5 7.3 5 9 C5.969375 8.835 6.93875 8.67 7.9375 8.5 C12.29487763 7.86603727 16.60630704 7.9103328 21 8 C20.34 8.33 19.68 8.66 19 9 C19 9.66 19 10.32 19 11 C19.99 11 20.98 11 22 11 C21.67 13.97 21.34 16.94 21 20 C20.34 20 19.68 20 19 20 C19 17.69 19 15.38 19 13 C16.39421134 13.08695958 13.7918721 13.19381408 11.1875 13.3125 C10.44951172 13.33505859 9.71152344 13.35761719 8.95117188 13.38085938 C4.71811688 13.57532316 4.71811688 13.57532316 0.9765625 15.3828125 C-0.24433806 17.05255106 -0.24433806 17.05255106 0.1875 19.5625 C0.84627033 22.14441272 0.84627033 22.14441272 3 24 C2.34 24.33 1.68 24.66 1 25 C0.34 24.67 -0.32 24.34 -1 24 C-0.814375 24.639375 -0.62875 25.27875 -0.4375 25.9375 C-0.293125 26.618125 -0.14875 27.29875 0 28 C-1 29 -1 29 -4.4375 29.125 C-8 29 -8 29 -10 28 C-9.34 30.64 -8.68 33.28 -8 36 C-12.50263629 32.52125086 -16.21031688 29.57960031 -18 24 C-18.66117332 17.77007108 -18.75870906 12.26219269 -15 7 C-10.45488417 2.44215275 -6.52892377 -0.36271799 0 0 Z " fill="#141433" transform="translate(512,63)"/>
<path d="M0 0 C0.71994141 -0.03738281 1.43988281 -0.07476562 2.18164062 -0.11328125 C4.28515625 -0.1484375 4.28515625 -0.1484375 7.9375 0.375 C11.59088922 4.42628309 11.3776297 8.44875069 11.23046875 13.6484375 C10.73806435 18.23108116 9.18735874 21.43771895 6.6875 25.3125 C3.26270858 27.39183765 -0.71919661 26.65054941 -4.5 25.875 C-5.015625 25.71 -5.53125 25.545 -6.0625 25.375 C-6.0625 24.715 -6.0625 24.055 -6.0625 23.375 C-7.3825 23.705 -8.7025 24.035 -10.0625 24.375 C-13.43055255 21.42795402 -14.87483911 19.72716374 -15.5 15.22265625 C-15.65770521 6.46016071 -15.65770521 6.46016071 -13.78125 3.0390625 C-10.05257011 -0.57097758 -4.93397643 0.0977025 0 0 Z " fill="#E7FBD2" transform="translate(634.0625,14.625)"/>
<path d="M0 0 C0.721875 0.66 1.44375 1.32 2.1875 2 C2.1875 2.99 2.1875 3.98 2.1875 5 C1.5275 5 0.8675 5 0.1875 5 C-0.1425 5.66 -0.4725 6.32 -0.8125 7 C-2.3125 5.6875 -2.3125 5.6875 -3.8125 4 C-3.8125 3.01 -3.8125 2.02 -3.8125 1 C-5.1325 1 -6.4525 1 -7.8125 1 C-7.8125 0.34 -7.8125 -0.32 -7.8125 -1 C-9.1325 -1 -10.4525 -1 -11.8125 -1 C-11.8125 -0.01 -11.8125 0.98 -11.8125 2 C-12.4725 2 -13.1325 2 -13.8125 2 C-13.4825 3.65 -13.1525 5.3 -12.8125 7 C-11.8225 7.33 -10.8325 7.66 -9.8125 8 C-10.1425 8.99 -10.4725 9.98 -10.8125 11 C-11.48829102 10.99476318 -12.16408203 10.98952637 -12.86035156 10.98413086 C-15.92772489 10.96331993 -18.99508333 10.95032671 -22.0625 10.9375 C-23.12597656 10.92912109 -24.18945312 10.92074219 -25.28515625 10.91210938 C-26.30996094 10.90888672 -27.33476562 10.90566406 -28.390625 10.90234375 C-29.33325195 10.89710693 -30.27587891 10.89187012 -31.24707031 10.88647461 C-33.59373437 10.99031918 -35.56894478 11.33293471 -37.8125 12 C-39.11175791 7.66914029 -40.156121 3.48525648 -40.8125 -1 C-27.8515162 -5.67300777 -12.41916884 -7.66979548 0 0 Z " fill="#201F3C" transform="translate(225.8125,45)"/>
<path d="M0 0 C4.36805319 0.03368679 8.64775705 0.57330951 13 1 C13 6.61 13 12.22 13 18 C13.66 18.33 14.32 18.66 15 19 C14.505 21.475 14.505 21.475 14 24 C10.52217417 25.15927528 7.81196743 25.11313066 4.14453125 25.09765625 C3.15207649 25.09553383 3.15207649 25.09553383 2.13957214 25.09336853 C0.03050172 25.08777996 -2.07846177 25.07522965 -4.1875 25.0625 C-5.61913909 25.05748352 -7.05077985 25.05292087 -8.48242188 25.04882812 C-11.98831588 25.0378143 -15.4941475 25.02055755 -19 25 C-19 24.34 -19 23.68 -19 23 C-18.19175781 22.82984375 -17.38351562 22.6596875 -16.55078125 22.484375 C-8.3004844 20.95761247 -8.3004844 20.95761247 -2 16 C-1.31718262 12.66469971 -1.07136765 9.39969548 -1 6 C-1.66 6 -2.32 6 -3 6 C-2.42655063 3.13275314 -2.1385485 2.1385485 0 0 Z " fill="#88D051" transform="translate(695,76)"/>
<path d="M0 0 C-2.72884323 2.98136306 -5.12303104 3.84515818 -9 5 C-9.99 5.495 -9.99 5.495 -11 6 C-11 6.66 -11 7.32 -11 8 C-10.44570313 8.24234375 -9.89140625 8.4846875 -9.3203125 8.734375 C-8.59585937 9.06953125 -7.87140625 9.4046875 -7.125 9.75 C-6.40570313 10.07484375 -5.68640625 10.3996875 -4.9453125 10.734375 C-2.6629326 12.21929686 -1.99624102 13.50415408 -1 16 C-1.6084375 15.67386719 -2.216875 15.34773438 -2.84375 15.01171875 C-7.4024681 13.55044649 -11.74471117 13.75036074 -16.5 13.8125 C-17.43714844 13.81314453 -18.37429688 13.81378906 -19.33984375 13.81445312 C-24.55236411 13.82358949 -24.55236411 13.82358949 -29.68164062 14.63549805 C-30.82922852 14.81592651 -30.82922852 14.81592651 -32 15 C-34.58926331 12.41073669 -34.37398043 10.97294721 -34.625 7.375 C-34.69976562 6.37210938 -34.77453125 5.36921875 -34.8515625 4.3359375 C-34.90054687 3.56507812 -34.94953125 2.79421875 -35 2 C-22.57737512 -3.25572591 -12.8652196 -3.26903121 0 0 Z " fill="#181435" transform="translate(445,42)"/>
<path d="M0 0 C0.78375 0.00451172 1.5675 0.00902344 2.375 0.01367188 C4.29170014 0.02535907 6.20836048 0.04329092 8.125 0.0625 C8.15198189 1.68740954 8.17138757 3.31244633 8.1875 4.9375 C8.19910156 5.84242187 8.21070313 6.74734375 8.22265625 7.6796875 C8.125 10.0625 8.125 10.0625 7.125 12.0625 C6.135 12.0625 5.145 12.0625 4.125 12.0625 C3.795 13.0525 3.465 14.0425 3.125 15.0625 C-0.41086209 16.2411207 -3.6900387 16.36029129 -7.375 16.4375 C-8.39013672 16.49357422 -8.39013672 16.49357422 -9.42578125 16.55078125 C-11.40625 16.5859375 -11.40625 16.5859375 -14.875 16.0625 C-17.98061279 12.37734081 -18.41164902 8.78867998 -18.875 4.0625 C-13.46246119 -0.7255151 -6.82983964 -0.075244 0 0 Z " fill="#D64ED7" transform="translate(211.875,72.9375)"/>
<path d="M0 0 C3.53257181 1.44514301 5.43094576 3.10320205 7.75 6.125 C7.67578125 8.0625 7.67578125 8.0625 6.75 10.125 C4.640625 12.01171875 4.640625 12.01171875 2 13.8125 C1.13890625 14.41449219 0.2778125 15.01648438 -0.609375 15.63671875 C-3.34586763 17.1790319 -5.12339679 17.91879764 -8.25 18.125 C-10.27304881 17.53194186 -12.27263804 16.8560842 -14.25 16.125 C-16.70141296 15.55282867 -19.16022517 15.01155704 -21.625 14.5 C-22.87023437 14.23960938 -24.11546875 13.97921875 -25.3984375 13.7109375 C-26.33945312 13.51757812 -27.28046875 13.32421875 -28.25 13.125 C-28.25 12.135 -28.25 11.145 -28.25 10.125 C-29.24 9.795 -30.23 9.465 -31.25 9.125 C-30.92 8.465 -30.59 7.805 -30.25 7.125 C-29.53972656 7.13660156 -28.82945312 7.14820312 -28.09765625 7.16015625 C-27.17855469 7.16917969 -26.25945312 7.17820312 -25.3125 7.1875 C-23.93771484 7.20490234 -23.93771484 7.20490234 -22.53515625 7.22265625 C-20.28406673 7.38449049 -20.28406673 7.38449049 -19.25 6.125 C-18.26 6.0425 -17.27 5.96 -16.25 5.875 C-12.84939425 5.46999973 -10.59629736 4.28169991 -7.6875 2.5 C-4.73537091 0.77583632 -3.49019779 0.13423838 0 0 Z " fill="#131435" transform="translate(358.25,82.875)"/>
<path d="M0 0 C6.6 0 13.2 0 20 0 C19.67 1.32 19.34 2.64 19 4 C19.66 4.33 20.32 4.66 21 5 C21 5.66 21 6.32 21 7 C22.98 7 24.96 7 27 7 C29.14637102 10.57728503 29.78883243 13.84703779 30 18 C29.18609097 20.44665986 28.1012185 22.65991068 27 25 C27.33 25.66 27.66 26.32 28 27 C27.06027344 27.19916016 27.06027344 27.19916016 26.1015625 27.40234375 C25.28429687 27.57894531 24.46703125 27.75554687 23.625 27.9375 C22.81289062 28.11152344 22.00078125 28.28554687 21.1640625 28.46484375 C18.970537 28.92330693 18.970537 28.92330693 17 30 C14.33992519 30.15051566 11.72345815 30.23127734 9.0625 30.25 C8.33353516 30.270625 7.60457031 30.29125 6.85351562 30.3125 C3.87693248 30.33432646 1.580305 30.34168538 -1.0234375 28.80859375 C-2.3874793 26.28238834 -2.08991848 24.62942938 -1.6875 21.8125 C-1.56761719 20.91144531 -1.44773438 20.01039062 -1.32421875 19.08203125 C-1.21722656 18.39496094 -1.11023438 17.70789063 -1 17 C0.33333333 19.66666667 1.66666667 22.33333333 3 25 C5.43757413 25.02698422 7.87484915 25.04683099 10.3125 25.0625 C11.00279297 25.07087891 11.69308594 25.07925781 12.40429688 25.08789062 C15.5483025 25.10307906 17.99420019 25.00193327 21 24 C21.33 23.34 21.66 22.68 22 22 C22.99 22 23.98 22 25 22 C25.33 18.04 25.66 14.08 26 10 C23.33259077 10.11518358 20.66652759 10.24189546 18 10.375 C17.25621094 10.4059375 16.51242188 10.436875 15.74609375 10.46875 C10.59432517 10.73753793 5.97007244 11.61063884 1 13 C1 12.01 1 11.02 1 10 C2.65 9.34 4.3 8.68 6 8 C6 6.35 6 4.7 6 3 C3.03 2.505 3.03 2.505 0 2 C0 1.34 0 0.68 0 0 Z " fill="#26094A" transform="translate(194,63)"/>
<path d="M0 0 C0.96550781 0.01353516 1.93101562 0.02707031 2.92578125 0.04101562 C5.28445425 0.07604542 7.64191771 0.12515916 10 0.1875 C10 1.1775 10 2.1675 10 3.1875 C5.38 3.8475 0.76 4.5075 -4 5.1875 C-4.33 6.5075 -4.66 7.8275 -5 9.1875 C-2.85270859 8.90676927 -0.70716807 8.61261501 1.4375 8.3125 C3.22994141 8.06886719 3.22994141 8.06886719 5.05859375 7.8203125 C6.02925781 7.61148438 6.99992187 7.40265625 8 7.1875 C8.33 6.5275 8.66 5.8675 9 5.1875 C11.31 5.1875 13.62 5.1875 16 5.1875 C16.36688617 10.69079257 16.36688617 10.69079257 14.73046875 12.90625 C13 14.1875 13 14.1875 9.125 13.875 C8.34125 13.75382812 7.5575 13.63265625 6.75 13.5078125 C2.43995852 13.00579062 -1.84884404 13.21967624 -6.1796875 13.34765625 C-9 13.1875 -9 13.1875 -12 11.1875 C-15.54223486 11.50377097 -18.62644274 12.06298091 -22 13.1875 C-22.66 12.5275 -23.32 11.8675 -24 11.1875 C-23.82355841 8.54087608 -23.039192 7.23923344 -21.4375 5.125 C-14.87001569 -0.09530804 -8.02783926 -0.21592119 0 0 Z " fill="#1E1E3B" transform="translate(430,62.8125)"/>
<path d="M0 0 C6.43311296 -0.09507063 12.65758005 -0.15316726 19 1 C19 2.32 19 3.64 19 5 C20.65 5 22.3 5 24 5 C24 6.32 24 7.64 24 9 C20.68885166 10.12880057 17.41021743 11.21302675 14 12 C14 12.66 14 13.32 14 14 C8.16291486 15.66390473 1.74864122 15.9456436 -4 13.8125 C-7 12 -7 12 -8.4375 9.5 C-9 7 -9 7 -9 4 C-6.03 4 -3.06 4 0 4 C0 2.68 0 1.36 0 0 Z " fill="#302F4E" transform="translate(511,87)"/>
<path d="M0 0 C2.64 0 5.28 0 8 0 C8 14.19 8 28.38 8 43 C6 44 6 44 0 44 C0 29.48 0 14.96 0 0 Z " fill="#67F70D" transform="translate(629,52)"/>
<path d="M0 0 C0 19.14 0 38.28 0 58 C-10 58 -10 58 -13 57 C-13 56.34 -13 55.68 -13 55 C-8.545 54.505 -8.545 54.505 -4 54 C-4 37.5 -4 21 -4 4 C-5.98 4 -7.96 4 -10 4 C-10.33 6.31 -10.66 8.62 -11 11 C-11.66 11 -12.32 11 -13 11 C-13 8.03 -13 5.06 -13 2 C-8.13112025 0.09994937 -5.57710066 0 0 0 Z " fill="#0E0E2D" transform="translate(75,42)"/>
<path d="M0 0 C5.61 0 11.22 0 17 0 C17 5.61 17 11.22 17 17 C8.585 17.495 8.585 17.495 0 18 C-1.60487828 14.79024345 -0.82448599 11.36653998 -0.5625 7.875 C-0.376875 5.27625 -0.19125 2.6775 0 0 Z " fill="#242642" transform="translate(598,83)"/>
<path d="M0 0 C8.99663016 -0.30497051 8.99663016 -0.30497051 13 2 C13.33 2.99 13.66 3.98 14 5 C13.16855469 4.94199219 12.33710937 4.88398437 11.48046875 4.82421875 C10.39378906 4.77910156 9.30710937 4.73398438 8.1875 4.6875 C7.10855469 4.62949219 6.02960937 4.57148437 4.91796875 4.51171875 C1.77814484 4.69189001 1.77814484 4.69189001 0.11328125 7.51953125 C-0.43779297 8.74736328 -0.43779297 8.74736328 -1 10 C-0.34 10 0.32 10 1 10 C1.35671569 13.40201076 1.48776505 16.60640059 1 20 C-2.19848217 23.91814066 -4.41392207 25.1416069 -9.375 25.8125 C-11.169375 25.9053125 -11.169375 25.9053125 -13 26 C-13 23.69 -13 21.38 -13 19 C-15.475 18.01 -15.475 18.01 -18 17 C-18 16.67 -18 16.34 -18 16 C-16.02 16 -14.04 16 -12 16 C-11.90589844 15.39671875 -11.81179688 14.7934375 -11.71484375 14.171875 C-10.83601348 11.50176772 -9.866928 10.80225504 -7.5625 9.25 C-6.94503906 8.82203125 -6.32757812 8.3940625 -5.69140625 7.953125 C-4 7 -4 7 -2 7 C-1.855625 6.401875 -1.71125 5.80375 -1.5625 5.1875 C-1.1127561 3.43849596 -0.57107659 1.71322977 0 0 Z " fill="#231643" transform="translate(693,72)"/>
<path d="M0 0 C1.32 0 2.64 0 4 0 C4 0.66 4 1.32 4 2 C5.32 2 6.64 2 8 2 C8 2.99 8 3.98 8 5 C10.94729537 6.15811388 10.94729537 6.15811388 14 6 C14.33 5.34 14.66 4.68 15 4 C18.14958831 7.42346555 18.56179109 10.44262737 19 15 C14.545 15.495 14.545 15.495 10 16 C9.34 17.98 8.68 19.96 8 22 C6.10546875 21.80859375 6.10546875 21.80859375 4 21 C2.98828125 18.78515625 2.98828125 18.78515625 2.3125 16.0625 C1.17913261 11.66199532 0.30774764 9.16393253 -3 6 C-2.67 5.01 -2.34 4.02 -2 3 C-1.34 3 -0.68 3 0 3 C0 2.01 0 1.02 0 0 Z " fill="#16143B" transform="translate(214,44)"/>
<path d="M0 0 C3.3 0 6.6 0 10 0 C10 21.78 10 43.56 10 66 C4.555 66.495 4.555 66.495 -1 67 C-1.02312635 58.4119428 -1.04091658 49.82389851 -1.05181217 41.23581791 C-1.05704036 37.248428 -1.06413684 33.26105933 -1.07543945 29.27368164 C-1.08627061 25.42874886 -1.09227732 21.58383655 -1.09487724 17.73888969 C-1.09673108 16.26881017 -1.10035091 14.79873182 -1.10573006 13.32866096 C-1.11294355 11.27645533 -1.11399081 9.22433533 -1.11352539 7.17211914 C-1.115746 6.00185684 -1.11796661 4.83159454 -1.12025452 3.62586975 C-1 1 -1 1 0 0 Z M0 2 C-0.0256589 8.4188551 -0.0429944 14.83769666 -0.05493164 21.2565918 C-0.05991574 23.43368016 -0.06670544 25.61076525 -0.07543945 27.7878418 C-0.12277363 39.90260698 -0.07949474 51.92596696 1 64 C2.98 64 4.96 64 7 64 C8.34049527 61.31900947 8.1198052 59.26688794 8.11352539 56.26513672 C8.11344986 55.06404266 8.11337433 53.86294861 8.11329651 52.62545776 C8.10813522 51.32335358 8.10297394 50.02124939 8.09765625 48.6796875 C8.09579138 47.33733167 8.0943678 45.99497516 8.09336853 44.65261841 C8.08954878 41.11804325 8.07972312 37.58350913 8.06866455 34.0489502 C8.05843878 30.44279536 8.05386841 26.8366339 8.04882812 23.23046875 C8.03810038 16.15362904 8.02103045 9.0768172 8 2 C5.36 2 2.72 2 0 2 Z " fill="#925AA8" transform="translate(709,27)"/>
<path d="M0 0 C5.28 0 10.56 0 16 0 C16 4.95 16 9.9 16 15 C10.72 15 5.44 15 0 15 C0 10.05 0 5.1 0 0 Z " fill="#27243A" transform="translate(470,19)"/>
<path d="M0 0 C1 1 1 1 1.09765625 3.94140625 C1.08605469 5.13636719 1.07445312 6.33132812 1.0625 7.5625 C1.05347656 8.76003906 1.04445313 9.95757812 1.03515625 11.19140625 C1.02355469 12.11824219 1.01195312 13.04507813 1 14 C0.18015625 13.98839844 -0.6396875 13.97679687 -1.484375 13.96484375 C-2.56203125 13.95582031 -3.6396875 13.94679688 -4.75 13.9375 C-5.81734375 13.92589844 -6.8846875 13.91429687 -7.984375 13.90234375 C-10.53368501 13.98489913 -12.57933591 14.25382442 -15 15 C-15 14.34 -15 13.68 -15 13 C-16.98 13 -18.96 13 -21 13 C-21 9.04 -21 5.08 -21 1 C-20.34 1 -19.68 1 -19 1 C-18.34 2.98 -17.68 4.96 -17 7 C-16.46890625 6.57847656 -15.9378125 6.15695313 -15.390625 5.72265625 C-14.68421875 5.17480469 -13.9778125 4.62695312 -13.25 4.0625 C-12.55390625 3.51722656 -11.8578125 2.97195312 -11.140625 2.41015625 C-7.53331653 0.03380888 -4.26544088 -0.23056437 0 0 Z " fill="#33334A" transform="translate(594,41)"/>
<path d="M0 0 C14.85010707 0.40685225 14.85010707 0.40685225 20 5 C20.99 5.66 21.98 6.32 23 7 C23 8.32 23 9.64 23 11 C19.41682042 11.08720919 15.83391433 11.14046112 12.25 11.1875 C11.23421875 11.21263672 10.2184375 11.23777344 9.171875 11.26367188 C8.1921875 11.27333984 7.2125 11.28300781 6.203125 11.29296875 C5.30239258 11.3086792 4.40166016 11.32438965 3.47363281 11.34057617 C0.49784671 10.93086223 -0.74984504 9.94130438 -3 8 C-3.99 7.34 -4.98 6.68 -6 6 C-6 5.01 -6 4.02 -6 3 C-4.02 3 -2.04 3 0 3 C0 2.01 0 1.02 0 0 Z " fill="#C35FD1" transform="translate(511,53)"/>
<path d="M0 0 C10.83984375 -0.09765625 10.83984375 -0.09765625 14 0 C15 1 15 1 15.09765625 4.16015625 C15.04882812 9.58007812 15.04882812 9.58007812 15 15 C10.05 15 5.1 15 0 15 C0 10.05 0 5.1 0 0 Z " fill="#241F3C" transform="translate(33,19)"/>
<path d="M0 0 C0.33 0 0.66 0 1 0 C0.67 18.48 0.34 36.96 0 56 C-3.21932955 52.78067045 -3.39674709 52.38795546 -3.73046875 48.16015625 C-3.81143799 47.18844482 -3.89240723 46.2167334 -3.97583008 45.21557617 C-4.04568115 44.17506104 -4.11553223 43.1345459 -4.1875 42.0625 C-4.26572998 40.99813721 -4.34395996 39.93377441 -4.42456055 38.8371582 C-4.90507687 31.79185617 -5.22645899 24.74877407 -5.3125 17.6875 C-5.33014404 16.8529126 -5.34778809 16.0183252 -5.3659668 15.15844727 C-5.35932092 9.38197152 -5.35932092 9.38197152 -3.55151367 7.46020508 C-3.03951416 6.9783374 -2.52751465 6.49646973 -2 6 C-0.79950593 2.89992799 -0.79950593 2.89992799 0 0 Z " fill="#33145D" transform="translate(708,19)"/>
<path d="M0 0 C0 15.84 0 31.68 0 48 C-0.99 47.67 -1.98 47.34 -3 47 C-4.61840008 43.76319985 -4.3869956 40.18853386 -4.5625 36.625 C-4.6251001 35.40151855 -4.6251001 35.40151855 -4.68896484 34.15332031 C-5.21971212 23.17876638 -5.64755142 11.89559945 -4 1 C-2 0 -2 0 0 0 Z " fill="#E2F6CC" transform="translate(625,51)"/>
<path d="M0 0 C0 4.29 0 8.58 0 13 C-4.22949995 15.41685712 -7.12335991 16.34833144 -12 16 C-12 12.7 -12 9.4 -12 6 C-14.64 6 -17.28 6 -20 6 C-20 4.35 -20 2.7 -20 1 C-19.01 1.495 -19.01 1.495 -18 2 C-16.35744209 2.12114921 -14.70947522 2.17540767 -13.0625 2.1875 C-11.74958984 2.20876953 -11.74958984 2.20876953 -10.41015625 2.23046875 C-6.07438529 1.81586504 -4.91701986 0 0 0 Z " fill="#7BBE67" transform="translate(444,85)"/>
<path d="M0 0 C4.29 0 8.58 0 13 0 C13 4.62 13 9.24 13 14 C8.71 14 4.42 14 0 14 C0 9.38 0 4.76 0 0 Z " fill="#93E153" transform="translate(626,20)"/>
<path d="M0 0 C0.33 0.66 0.66 1.32 1 2 C4.02934491 2.65772428 4.02934491 2.65772428 7 3 C7.3125 5.3125 7.3125 5.3125 7 8 C4.5625 9.625 4.5625 9.625 2 11 C0.99740493 14.00778521 0.69685358 16.53820647 0.4375 19.6875 C0.35371094 20.68136719 0.26992187 21.67523438 0.18359375 22.69921875 C0.12300781 23.45847656 0.06242188 24.21773437 0 25 C-0.33 25 -0.66 25 -1 25 C-1.33 21.04 -1.66 17.08 -2 13 C-3.98 13.99 -3.98 13.99 -6 15 C-6.33 12.36 -6.66 9.72 -7 7 C-10.37088267 9.27415287 -10.37088267 9.27415287 -12 13 C-12.66 13 -13.32 13 -14 13 C-12.61154866 7.7547394 -9.27421346 5.03597565 -5 2 C-2.0625 0.625 -2.0625 0.625 0 0 Z " fill="#150F3D" transform="translate(193,63)"/>
<path d="M0 0 C1.47906892 -0.02689216 2.95827483 -0.04634621 4.4375 -0.0625 C5.26121094 -0.07410156 6.08492187 -0.08570312 6.93359375 -0.09765625 C9 0 9 0 10 1 C10.09981214 3.6773138 10.13879875 6.32304175 10.125 9 C10.12886719 9.75023438 10.13273438 10.50046875 10.13671875 11.2734375 C10.12661053 16.87338947 10.12661053 16.87338947 9 18 C5.5 18.125 5.5 18.125 2 18 C-0.41435419 15.58564581 0.01967455 9.79681945 -0.0625 6.46875 C-0.0625 4.31152843 -0.04493164 2.15671869 0 0 Z " fill="#72EE1F" transform="translate(695,78)"/>
<path d="M0 0 C2.85654845 0.77216075 5.29183926 1.77366306 8 3 C8 3.66 8 4.32 8 5 C8.66 5 9.32 5 10 5 C10.0270043 6.45823212 10.04639787 7.91660675 10.0625 9.375 C10.07410156 10.18710937 10.08570313 10.99921875 10.09765625 11.8359375 C10 14 10 14 9 16 C-7.8929385 16.3690205 -7.8929385 16.3690205 -15 14 C-15 13.67 -15 13.34 -15 13 C-7.74 13 -0.48 13 7 13 C7 11.68 7 10.36 7 9 C6.443125 8.731875 5.88625 8.46375 5.3125 8.1875 C3 7 3 7 0.75 5.5 C-2.33362901 3.81802054 -4.84703122 3.30756697 -8.3125 2.8125 C-9.38113281 2.65394531 -10.44976563 2.49539062 -11.55078125 2.33203125 C-12.35902344 2.22246094 -13.16726563 2.11289062 -14 2 C-9.5255041 -0.98299727 -5.24981746 -0.49217039 0 0 Z " fill="#321256" transform="translate(527,51)"/>
<path d="M0 0 C1 1 1 1 1.12025452 3.54994202 C1.1169236 5.25204079 1.1169236 5.25204079 1.11352539 6.98852539 C1.11344986 8.26977798 1.11337433 9.55103058 1.11329651 10.87110901 C1.10818909 12.27995848 1.10297309 13.68880756 1.09765625 15.09765625 C1.09579202 16.53112234 1.09436814 17.96458907 1.09336853 19.39805603 C1.08954372 23.17759957 1.07971377 26.9571049 1.06866455 30.7366333 C1.05844963 34.59069298 1.05387074 38.44475882 1.04882812 42.29882812 C1.03809146 49.86590287 1.02101549 57.43294609 1 65 C0.67 65 0.34 65 0 65 C-0.33 44.87 -0.66 24.74 -1 4 C-3.31 4.33 -5.62 4.66 -8 5 C-8.33 10.94 -8.66 16.88 -9 23 C-9.66 23 -10.32 23 -11 23 C-11 15.74 -11 8.48 -11 1 C-7.11651516 -0.29449495 -4.09302664 -0.13203312 0 0 Z " fill="#1D1E32" transform="translate(484,41)"/>
<path d="M0 0 C0.12117188 0.66386719 0.24234375 1.32773438 0.3671875 2.01171875 C1.5543974 8.70124948 1.5543974 8.70124948 4 15 C4.66 15.33 5.32 15.66 6 16 C6 16.66 6 17.32 6 18 C6.99 17.67 7.98 17.34 9 17 C9.33 18.32 9.66 19.64 10 21 C15.60752181 22.70663707 21.24237834 23.91103333 27 25 C27 25.33 27 25.66 27 26 C18.32448572 26.44532108 10.67785854 25.84739215 3.125 21.25 C-1.5797422 16.26850826 -3.24125529 12.8658878 -3.25 6.0625 C-3.18637413 4.37414209 -3.10975688 2.68598758 -3 1 C-1 0 -1 0 0 0 Z " fill="#201F3A" transform="translate(407,76)"/>
<path d="M0 0 C1.485 0.99 1.485 0.99 3 2 C2.34 2.66 1.68 3.32 1 4 C1.33 3.67 1.66 3.34 2 3 C2.99 3.33 3.98 3.66 5 4 C6 7 6 7 5 10 C5.7018576 12.8509288 5.7018576 12.8509288 7 14 C8.68597922 18.77694113 9.20494154 22.05973969 8 27 C6.13671875 26.765625 6.13671875 26.765625 4 26 C2.76953125 24.109375 2.76953125 24.109375 1.8125 21.75 C1.32716797 20.59757812 1.32716797 20.59757812 0.83203125 19.421875 C-0.69046503 14.99019567 -1.13763796 10.92604549 -1.125 6.25 C-1.12757813 5.28578125 -1.13015625 4.3215625 -1.1328125 3.328125 C-1 1 -1 1 0 0 Z " fill="#121131" transform="translate(313,64)"/>
<path d="M0 0 C0.02689216 1.47906892 0.04634621 2.95827483 0.0625 4.4375 C0.07410156 5.26121094 0.08570312 6.08492187 0.09765625 6.93359375 C0 9 0 9 -1 10 C-3.18639453 10.07258946 -5.37500389 10.08373783 -7.5625 10.0625 C-9.35880859 10.04896484 -9.35880859 10.04896484 -11.19140625 10.03515625 C-12.11824219 10.02355469 -13.04507813 10.01195312 -14 10 C-14 6.7 -14 3.4 -14 0 C-4.42857143 -1.28571429 -4.42857143 -1.28571429 0 0 Z " fill="#131135" transform="translate(75,23)"/>
<path d="M0 0 C1.65 0 3.3 0 5 0 C5 19.14 5 38.28 5 58 C-5 58 -5 58 -8 57 C-8 56.34 -8 55.68 -8 55 C-4.37 55.33 -0.74 55.66 3 56 C2.96447021 54.43523926 2.92894043 52.87047852 2.89233398 51.25830078 C2.76226827 45.46999611 2.63900159 39.68156338 2.51782227 33.89306641 C2.46434955 31.3845624 2.40901626 28.87609735 2.35180664 26.36767578 C2.27004269 22.76864017 2.19490256 19.16951892 2.12109375 15.5703125 C2.09405869 14.44319855 2.06702362 13.31608459 2.03916931 12.15481567 C2.01907303 11.11388763 1.99897675 10.07295959 1.97827148 9.00048828 C1.95828598 8.08115509 1.93830048 7.1618219 1.91770935 6.21463013 C2 4 2 4 3 2 C2.01 1.34 1.02 0.68 0 0 Z " fill="#1B1B33" transform="translate(70,42)"/>
<path d="M0 0 C0 0.99 0 1.98 0 3 C-0.95261719 3.12117188 -1.90523438 3.24234375 -2.88671875 3.3671875 C-4.14097656 3.53476562 -5.39523437 3.70234375 -6.6875 3.875 C-8.54955078 4.11863281 -8.54955078 4.11863281 -10.44921875 4.3671875 C-13.93459367 4.85992621 -13.93459367 4.85992621 -16.76953125 6.1328125 C-19 7 -19 7 -22 6 C-21.67 7.65 -21.34 9.3 -21 11 C-21.99 11 -22.98 11 -24 11 C-23.01 12.32 -22.02 13.64 -21 15 C-21.99 15.66 -22.98 16.32 -24 17 C-26.58926331 14.41073669 -26.37398043 12.97294721 -26.625 9.375 C-26.69976562 8.37210938 -26.77453125 7.36921875 -26.8515625 6.3359375 C-26.90054687 5.56507812 -26.94953125 4.79421875 -27 4 C-18.40574407 0.36396865 -9.27361669 -2.10764016 0 0 Z " fill="#232034" transform="translate(437,40)"/>
<path d="M0 0 C0.78375 0.00451172 1.5675 0.00902344 2.375 0.01367188 C4.29170014 0.02535907 6.20836048 0.04329092 8.125 0.0625 C8.15198189 1.68740954 8.17138757 3.31244633 8.1875 4.9375 C8.19910156 5.84242187 8.21070313 6.74734375 8.22265625 7.6796875 C8.125 10.0625 8.125 10.0625 7.125 12.0625 C6.135 12.0625 5.145 12.0625 4.125 12.0625 C3.795 13.0525 3.465 14.0425 3.125 15.0625 C-0.41086209 16.2411207 -3.6900387 16.36029129 -7.375 16.4375 C-8.39013672 16.49357422 -8.39013672 16.49357422 -9.42578125 16.55078125 C-11.40625 16.5859375 -11.40625 16.5859375 -14.875 16.0625 C-17.98061279 12.37734081 -18.41164902 8.78867998 -18.875 4.0625 C-13.46246119 -0.7255151 -6.82983964 -0.075244 0 0 Z M-7.875 1.0625 C-7.875 1.7225 -7.875 2.3825 -7.875 3.0625 C-10.185 3.3925 -12.495 3.7225 -14.875 4.0625 C-15.17062367 9.38420494 -15.17062367 9.38420494 -12.875 14.0625 C-10.05019193 14.5039518 -10.05019193 14.5039518 -6.875 14.375 C-5.8025 14.37113281 -4.73 14.36726563 -3.625 14.36328125 C-0.73241349 14.33726917 -0.73241349 14.33726917 1.125 12.0625 C3.75 11.4375 3.75 11.4375 6.125 11.0625 C7.49393239 7.4827491 7.49393239 7.4827491 7.125 1.0625 C2.175 1.0625 -2.775 1.0625 -7.875 1.0625 Z " fill="#B753C4" transform="translate(211.875,72.9375)"/>
<path d="M0 0 C2.64 0 5.28 0 8 0 C8.02314533 7.78848121 8.04092629 15.5769544 8.05181217 23.36546135 C8.05703619 26.98177172 8.06412515 30.59805861 8.07543945 34.21435547 C8.08628538 37.70268104 8.09228047 41.19098398 8.09487724 44.6793251 C8.09763081 46.66137692 8.1054401 48.6434196 8.11329651 50.62545776 C8.11337204 51.82655182 8.11344757 53.02764587 8.11352539 54.26513672 C8.115746 55.32658905 8.11796661 56.38804138 8.12025452 57.48165894 C8 60 8 60 7 62 C5.02 62 3.04 62 1 62 C1 61.67 1 61.34 1 61 C2.65 61 4.3 61 6 61 C6.33 41.86 6.66 22.72 7 3 C5.02 3 3.04 3 1 3 C1 17.52 1 32.04 1 47 C0.67 47 0.34 47 0 47 C0 31.49 0 15.98 0 0 Z " fill="#A54FC6" transform="translate(709,29)"/>
<path d="M0 0 C1.8871875 0.0309375 1.8871875 0.0309375 3.8125 0.0625 C3.60625 0.660625 3.4 1.25875 3.1875 1.875 C2.50578085 4.34700846 2.50578085 4.34700846 4.8125 7.0625 C2.5025 7.7225 0.1925 8.3825 -2.1875 9.0625 C-1.8575 10.3825 -1.5275 11.7025 -1.1875 13.0625 C-3.1675 13.0625 -5.1475 13.0625 -7.1875 13.0625 C-6.5275 14.7125 -5.8675 16.3625 -5.1875 18.0625 C-6.1775 18.0625 -7.1675 18.0625 -8.1875 18.0625 C-8.1875 17.0725 -8.1875 16.0825 -8.1875 15.0625 C-8.8475 15.0625 -9.5075 15.0625 -10.1875 15.0625 C-9.69921875 9.0078125 -9.69921875 9.0078125 -9.1875 7.0625 C-8.1975 6.4025 -7.2075 5.7425 -6.1875 5.0625 C-6.5175 3.7425 -6.8475 2.4225 -7.1875 1.0625 C-4.43671116 0.14557039 -2.82801087 -0.04636083 0 0 Z " fill="#211C3E" transform="translate(512.1875,42.9375)"/>
<path d="M0 0 C6.6 0 13.2 0 20 0 C19.67 1.32 19.34 2.64 19 4 C19.33 5.32 19.66 6.64 20 8 C12.08 8.495 12.08 8.495 4 9 C4.66 8.67 5.32 8.34 6 8 C6 6.35 6 4.7 6 3 C3.03 2.505 3.03 2.505 0 2 C0 1.34 0 0.68 0 0 Z " fill="#261D4E" transform="translate(194,63)"/>
<path d="M0 0 C2.31 0.33 4.62 0.66 7 1 C7 1.33 7 1.66 7 2 C9.64 2.33 12.28 2.66 15 3 C15 5.64 15 8.28 15 11 C12.85423363 11.02685938 10.70837355 11.04633088 8.5625 11.0625 C7.36753906 11.07410156 6.17257812 11.08570313 4.94140625 11.09765625 C2 11 2 11 1 10 C0.76712992 8.31816052 0.58735834 6.6287584 0.4375 4.9375 C0.35371094 4.01839844 0.26992188 3.09929688 0.18359375 2.15234375 C0.09271484 1.08693359 0.09271484 1.08693359 0 0 Z " fill="#12350D" transform="translate(625,39)"/>
<path d="M0 0 C2.16874252 0.50603992 3.99967627 0.99983813 6 2 C6 2.99 6 3.98 6 5 C6.92619141 5.07347656 6.92619141 5.07347656 7.87109375 5.1484375 C13.73478159 5.66608422 19.27872775 6.61582123 25 8 C25 8.99 25 9.98 25 11 C16.36618698 11.4871744 9.76346517 10.92110107 2 7 C1.34 6.67 0.68 6.34 0 6 C0 4.02 0 2.04 0 0 Z " fill="#32324F" transform="translate(324,91)"/>
<path d="M0 0 C0.33 0 0.66 0 1 0 C1.33 2.31 1.66 4.62 2 7 C6.29 7.33 10.58 7.66 15 8 C15 24.17 15 40.34 15 57 C10.71 57 6.42 57 2 57 C2 56.67 2 56.34 2 56 C5.96 56 9.92 56 14 56 C14 40.49 14 24.98 14 9 C8.555 9.495 8.555 9.495 3 10 C2.67 19.24 2.34 28.48 2 38 C1.67 38 1.34 38 1 38 C0.67 28.1 0.34 18.2 0 8 C-0.66 7.67 -1.32 7.34 -2 7 C-1.34 4.69 -0.68 2.38 0 0 Z " fill="#9DEE68" transform="translate(625,42)"/>
<path d="M0 0 C0 6.27 0 12.54 0 19 C0.66 19.33 1.32 19.66 2 20 C2 20.66 2 21.32 2 22 C1.01 22.33 0.02 22.66 -1 23 C-4.36805255 20.05295402 -5.81233911 18.35216374 -6.4375 13.84765625 C-6.59560259 5.06308136 -6.59560259 5.06308136 -4.65625 1.6015625 C-3 0 -3 0 0 0 Z " fill="#EDFBDD" transform="translate(625,16)"/>
<path d="M0 0 C2.31 0 4.62 0 7 0 C7.28875 0.639375 7.5775 1.27875 7.875 1.9375 C8.82823451 4.15206079 8.82823451 4.15206079 11 5 C11.33 3.68 11.66 2.36 12 1 C13.15957207 4.47871621 12.77456651 5.34219645 11.5625 8.6875 C11.27503906 9.49574219 10.98757812 10.30398437 10.69140625 11.13671875 C10.46324219 11.75160156 10.23507813 12.36648437 10 13 C9.01 12.67 8.02 12.34 7 12 C7 11.01 7 10.02 7 9 C6.34 8.67 5.68 8.34 5 8 C5.33 8.99 5.66 9.98 6 11 C4.35 11.66 2.7 12.32 1 13 C1 13.66 1 14.32 1 15 C0.34 15 -0.32 15 -1 15 C-0.9278125 14.00097656 -0.855625 13.00195312 -0.78125 11.97265625 C-0.6884375 10.68230469 -0.595625 9.39195313 -0.5 8.0625 C-0.4071875 6.77472656 -0.314375 5.48695312 -0.21875 4.16015625 C-0.06142822 2.08173561 -0.06142822 2.08173561 0 0 Z " fill="#141336" transform="translate(163,44)"/>
<path d="M0 0 C8.99663016 -0.30497051 8.99663016 -0.30497051 13 2 C13.33 2.99 13.66 3.98 14 5 C13.16855469 4.94199219 12.33710937 4.88398437 11.48046875 4.82421875 C10.39378906 4.77910156 9.30710937 4.73398438 8.1875 4.6875 C7.10855469 4.62949219 6.02960937 4.57148437 4.91796875 4.51171875 C1.77814484 4.69189001 1.77814484 4.69189001 0.11328125 7.51953125 C-0.25410156 8.33808594 -0.62148438 9.15664062 -1 10 C-0.34 10 0.32 10 1 10 C1 13.3 1 16.6 1 20 C-0.98 19.34 -2.96 18.68 -5 18 C-4.37240135 15.07120629 -3.41377341 12.63904371 -2 10 C-2.99 9.67 -3.98 9.34 -5 9 C-4.34 9 -3.68 9 -3 9 C-2.01 6.03 -1.02 3.06 0 0 Z " fill="#193821" transform="translate(693,72)"/>
<path d="M0 0 C1.32 0.33 2.64 0.66 4 1 C4.61149705 17.33640403 5.18533778 33.64908956 5 50 C9.29 50 13.58 50 18 50 C18 50.66 18 51.32 18 52 C10.08 52.495 10.08 52.495 2 53 C2.33 36.17 2.66 19.34 3 2 C2.01 2.33 1.02 2.66 0 3 C0 2.01 0 1.02 0 0 Z " fill="#CCF9AA" transform="translate(622,49)"/>
<path d="M0 0 C5.28 0 10.56 0 16 0 C16 4.95 16 9.9 16 15 C13.69 14.67 11.38 14.34 9 14 C9.33 13.34 9.66 12.68 10 12 C10.66 12 11.32 12 12 12 C11.34 9.69 10.68 7.38 10 5 C9.36191406 4.89042969 8.72382813 4.78085937 8.06640625 4.66796875 C7.24011719 4.50941406 6.41382813 4.35085937 5.5625 4.1875 C4.73878906 4.03667969 3.91507812 3.88585937 3.06640625 3.73046875 C2.38449219 3.48941406 1.70257813 3.24835937 1 3 C0.67 2.01 0.34 1.02 0 0 Z " fill="#302E43" transform="translate(470,19)"/>
<path d="M0 0 C3.96 0.33 7.92 0.66 12 1 C11.67 2.65 11.34 4.3 11 6 C8.36 6.33 5.72 6.66 3 7 C2.34 9.64 1.68 12.28 1 15 C-0.32 15 -1.64 15 -3 15 C-4.70663022 9.0428945 -2.42273887 5.5062247 0 0 Z " fill="#292845" transform="translate(123,41)"/>
<path d="M0 0 C1 1 1 1 1.09765625 3.94140625 C1.06510417 7.29427083 1.03255208 10.64713542 1 14 C-3.29 14 -7.58 14 -12 14 C-12.33 13.01 -12.66 12.02 -13 11 C-10.69 11 -8.38 11 -6 11 C-6 10.34 -6 9.68 -6 9 C-5.34 9 -4.68 9 -4 9 C-3.67 7.35 -3.34 5.7 -3 4 C-5.31 4 -7.62 4 -10 4 C-10 3.01 -10 2.02 -10 1 C-6.61905851 -0.04028969 -3.52637472 -0.15672777 0 0 Z " fill="#110D28" transform="translate(47,19)"/>
<path d="M0 0 C4.29 0 8.58 0 13 0 C12 5 12 5 11 8 C10.01 7.67 9.02 7.34 8 7 C7.67 6.01 7.34 5.02 7 4 C5.02 4 3.04 4 1 4 C1.020625 5.0725 1.04125 6.145 1.0625 7.25 C1.0142016 10.14790424 0.86844115 12.28612141 0 15 C-0.66 15 -1.32 15 -2 15 C-2 15.66 -2 16.32 -2 17 C-2.99 17 -3.98 17 -5 17 C-4.52822724 10.51312452 -2.83734494 5.8577444 0 0 Z " fill="#212035" transform="translate(163,41)"/>
<path d="M0 0 C2.31 0 4.62 0 7 0 C7.36105033 5.41575492 7.36105033 5.41575492 5.92578125 7.73828125 C2.89225473 9.72576414 0.50330772 8.92239183 -3 8.375 C-4.2375 8.19710937 -5.475 8.01921875 -6.75 7.8359375 C-9.89948043 7.02585479 -11.08707327 6.54588043 -13 4 C-11.71802734 3.81824219 -11.71802734 3.81824219 -10.41015625 3.6328125 C-9.30542969 3.46523437 -8.20070313 3.29765625 -7.0625 3.125 C-5.96035156 2.96257812 -4.85820312 2.80015625 -3.72265625 2.6328125 C-2.37494141 2.31957031 -2.37494141 2.31957031 -1 2 C-0.67 1.34 -0.34 0.68 0 0 Z " fill="#22234B" transform="translate(439,68)"/>
<path d="M0 0 C0.33 0 0.66 0 1 0 C1 4.62 1 9.24 1 14 C5.29 14 9.58 14 14 14 C14 9.38 14 4.76 14 0 C14.33 0 14.66 0 15 0 C15 4.95 15 9.9 15 15 C11.37 15 7.74 15 4 15 C4 15.66 4 16.32 4 17 C5.0725 16.814375 6.145 16.62875 7.25 16.4375 C10.40391546 16.0695432 12.09818492 15.95534657 15 17 C14.67 18.32 14.34 19.64 14 21 C5.50568182 21.16335227 5.50568182 21.16335227 3 20 C-0.20289255 15.86521451 -0.37566711 12.22941371 -0.1875 7.1875 C-0.16719727 6.14819336 -0.16719727 6.14819336 -0.14648438 5.08789062 C-0.11138845 3.39158735 -0.05758943 1.69568864 0 0 Z " fill="#D0F3B0" transform="translate(625,20)"/>
<path d="M0 0 C1.98 0 3.96 0 6 0 C6 5.28 6 10.56 6 16 C4.02 16.33 2.04 16.66 0 17 C0 11.39 0 5.78 0 0 Z " fill="#AC3CDC" transform="translate(710,32)"/>
<path d="M0 0 C0.02690844 2.62506802 0.04679404 5.24986173 0.0625 7.875 C0.07087891 8.62136719 0.07925781 9.36773437 0.08789062 10.13671875 C0.11328125 15.7734375 0.11328125 15.7734375 -1 18 C-2.65 18 -4.3 18 -6 18 C-6.10823773 15.75106046 -6.18569645 13.50062425 -6.25 11.25 C-6.29640625 9.99703125 -6.3428125 8.7440625 -6.390625 7.453125 C-6 4 -6 4 -4.109375 1.546875 C-2 0 -2 0 0 0 Z " fill="#B23ED0" transform="translate(716,72)"/>
<path d="M0 0 C3.875 1.875 3.875 1.875 5 3 C5 4.65 5 6.3 5 8 C-1.6 8 -8.2 8 -15 8 C-15 7.34 -15 6.68 -15 6 C-14.16855469 5.81824219 -13.33710937 5.63648437 -12.48046875 5.44921875 C-11.39378906 5.19785156 -10.30710937 4.94648437 -9.1875 4.6875 C-7.56908203 4.32205078 -7.56908203 4.32205078 -5.91796875 3.94921875 C-3.0552844 3.01798408 -1.84602934 2.31239465 0 0 Z " fill="#8C6F91" transform="translate(691,93)"/>
<path d="M0 0 C-0.33 2.97 -0.66 5.94 -1 9 C-1.66 9 -2.32 9 -3 9 C-3 6.69 -3 4.38 -3 2 C-5.60578866 2.08695958 -8.2081279 2.19381408 -10.8125 2.3125 C-11.55048828 2.33505859 -12.28847656 2.35761719 -13.04882812 2.38085938 C-17.29111942 2.52351103 -17.29111942 2.52351103 -20.88671875 4.54296875 C-21.43779297 5.26419922 -21.43779297 5.26419922 -22 6 C-22.66 6 -23.32 6 -24 6 C-24.33 6.99 -24.66 7.98 -25 9 C-24.5020163 5.26512223 -24.12508244 3.18762365 -22 0 C-15.09640204 -1.38071959 -6.7369148 -2.24563827 0 0 Z " fill="#010130" transform="translate(534,74)"/>
<path d="M0 0 C0.08120751 2.89640118 0.14059421 5.79050912 0.1875 8.6875 C0.21263672 9.50412109 0.23777344 10.32074219 0.26367188 11.16210938 C0.32170072 15.93981741 0.13733144 19.11982434 -3 23 C-3.33 23 -3.66 23 -4 23 C-5.31737843 15.68123096 -5.14693915 8.35038395 -4 1 C-2 0 -2 0 0 0 Z " fill="#EDFCD8" transform="translate(625,51)"/>
<path d="M0 0 C0.09733092 7.09434233 0.10087193 13.98194143 -1 21 C-1.99 20.67 -2.98 20.34 -4 20 C-4.33 13.73 -4.66 7.46 -5 1 C-3 0 -3 0 0 0 Z " fill="#081822" transform="translate(448,77)"/>
<path d="M0 0 C2.31 0 4.62 0 7 0 C6.071875 0.3403125 6.071875 0.3403125 5.125 0.6875 C2.38589791 2.37929835 1.94975528 3.99244161 1 7 C1.66 7 2.32 7 3 7 C3 7.66 3 8.32 3 9 C9.6 9.33 16.2 9.66 23 10 C23 10.33 23 10.66 23 11 C19.41682042 11.08720919 15.83391433 11.14046112 12.25 11.1875 C11.23421875 11.21263672 10.2184375 11.23777344 9.171875 11.26367188 C8.1921875 11.27333984 7.2125 11.28300781 6.203125 11.29296875 C5.30239258 11.3086792 4.40166016 11.32438965 3.47363281 11.34057617 C0.49784671 10.93086223 -0.74984504 9.94130438 -3 8 C-3.99 7.34 -4.98 6.68 -6 6 C-6 5.01 -6 4.02 -6 3 C-4.02 3 -2.04 3 0 3 C0 2.01 0 1.02 0 0 Z " fill="#9456A9" transform="translate(511,53)"/>
<path d="M0 0 C4.23617288 4.23617288 4.87209392 8.65505525 5.1875 14.4375 C5 17 5 17 4 18 C3.72046781 20.0587768 3.55265649 22.11728432 3.37890625 24.1875 C3.25386719 24.785625 3.12882813 25.38375 3 26 C2.34 26.33 1.68 26.66 1 27 C0.67 18.09 0.34 9.18 0 0 Z " fill="#D4F4B7" transform="translate(640,42)"/>
<path d="M0 0 C0.78375 0.721875 1.5675 1.44375 2.375 2.1875 C2.375 3.1775 2.375 4.1675 2.375 5.1875 C1.89546875 4.87039062 1.4159375 4.55328125 0.921875 4.2265625 C-2.78722106 2.71334233 -6.40309202 2.72058589 -10.375 2.5625 C-11.56416016 2.50449219 -11.56416016 2.50449219 -12.77734375 2.4453125 C-14.72619416 2.351392 -16.67556451 2.26837178 -18.625 2.1875 C-18.625 1.1975 -18.625 0.2075 -18.625 -0.8125 C-12.69651669 -2.39342888 -5.41501074 -3.36991167 0 0 Z " fill="#2D2B46" transform="translate(440.625,52.8125)"/>
<path d="M0 0 C0.33 0.99 0.66 1.98 1 3 C-1.31 3.33 -3.62 3.66 -6 4 C-6 4.99 -6 5.98 -6 7 C-8.31 7.33 -10.62 7.66 -13 8 C-13.66 5.69 -14.32 3.38 -15 1 C-10.05 0.67 -5.1 0.34 0 0 Z " fill="#585578" transform="translate(74,32)"/>
<path d="M0 0 C2.64 0 5.28 0 8 0 C8 2.97 8 5.94 8 9 C5.36 9 2.72 9 0 9 C-1.15941038 5.52176885 -0.70820884 3.54104422 0 0 Z " fill="#08111F" transform="translate(424,91)"/>
<path d="M0 0 C4.95 0 9.9 0 15 0 C15 7 15 7 14 10 C13.01 10 12.02 10 11 10 C11 7.69 11 5.38 11 3 C10.01 3.495 10.01 3.495 9 4 C6.62216895 3.91161539 4.24654854 3.75653579 1.875 3.5625 C0.59367188 3.46066406 -0.68765625 3.35882813 -2.0078125 3.25390625 C-3.48894531 3.12822266 -3.48894531 3.12822266 -5 3 C-5 2.67 -5 2.34 -5 2 C-3.35 2 -1.7 2 0 2 C0 1.34 0 0.68 0 0 Z " fill="#CA54D1" transform="translate(204,74)"/>
<path d="M0 0 C-1.28965176 1.37562854 -2.62689293 2.70766393 -4 4 C-4.66 4 -5.32 4 -6 4 C-6.33 9.94 -6.66 15.88 -7 22 C-7.66 22 -8.32 22 -9 22 C-9 14.74 -9 7.48 -9 0 C-5.52176885 -1.15941038 -3.54104422 -0.70820884 0 0 Z " fill="#23223E" transform="translate(482,42)"/>
<path d="M0 0 C3.63 0 7.26 0 11 0 C12.29945577 2.59891154 12.0223077 4.32666656 11.87890625 7.2265625 C11.83056641 8.2578125 11.78222656 9.2890625 11.73242188 10.3515625 C11.67634766 11.43179688 11.62027344 12.51203125 11.5625 13.625 C11.51029297 14.71296875 11.45808594 15.8009375 11.40429688 16.921875 C11.27437225 19.6148581 11.13939838 22.30749336 11 25 C10.67 25 10.34 25 10 25 C9.34 18.07 8.68 11.14 8 4 C5.36 3.67 2.72 3.34 0 3 C0 2.01 0 1.02 0 0 Z " fill="#0C0B29" transform="translate(382,21)"/>
<path d="M0 0 C0 0.33 0 0.66 0 1 C-7.26 1.66 -14.52 2.32 -22 3 C-21.34 4.65 -20.68 6.3 -20 8 C-20.99 8.33 -21.98 8.66 -23 9 C-23.33 9.99 -23.66 10.98 -24 12 C-24.66 12 -25.32 12 -26 12 C-26.33 9.03 -26.66 6.06 -27 3 C-17.76838596 0.67479586 -9.53748149 -0.4277608 0 0 Z " fill="#211E32" transform="translate(527,41)"/>
<path d="M0 0 C0.78375 0.00451172 1.5675 0.00902344 2.375 0.01367188 C4.29170014 0.02535907 6.20836048 0.04329092 8.125 0.0625 C8.125 3.3625 8.125 6.6625 8.125 10.0625 C7.795 10.0625 7.465 10.0625 7.125 10.0625 C7.125 7.0925 7.125 4.1225 7.125 1.0625 C2.175 1.0625 -2.775 1.0625 -7.875 1.0625 C-7.875 1.7225 -7.875 2.3825 -7.875 3.0625 C-10.515 3.7225 -13.155 4.3825 -15.875 5.0625 C-15.545 8.3625 -15.215 11.6625 -14.875 15.0625 C-15.535 14.7325 -16.195 14.4025 -16.875 14.0625 C-17.5078125 11.77734375 -17.5078125 11.77734375 -18 9 C-18.16757813 8.08089844 -18.33515625 7.16179687 -18.5078125 6.21484375 C-18.62898437 5.50457031 -18.75015625 4.79429688 -18.875 4.0625 C-13.4307641 -0.75355484 -6.86075996 -0.07558464 0 0 Z " fill="#9247A7" transform="translate(211.875,72.9375)"/>
<path d="M0 0 C1.98 0 3.96 0 6 0 C8 5.75 8 5.75 8 8 C5.69 8.66 3.38 9.32 1 10 C0 9 0 9 -0.09765625 6.93359375 C-0.08605469 6.10988281 -0.07445312 5.28617188 -0.0625 4.4375 C-0.05347656 3.61121094 -0.04445313 2.78492188 -0.03515625 1.93359375 C-0.02355469 1.29550781 -0.01195312 0.65742188 0 0 Z " fill="#151137" transform="translate(474,23)"/>
<path d="M0 0 C-0.33 1.32 -0.66 2.64 -1 4 C-6.61 4 -12.22 4 -18 4 C-18 3.01 -18 2.02 -18 1 C-11.95170514 0.10395632 -6.1105424 -0.11269443 0 0 Z " fill="#3A365A" transform="translate(215,98)"/>
<path d="M0 0 C4.75 0.75 4.75 0.75 7 3 C7.125 6.125 7.125 6.125 7 9 C4.36 9 1.72 9 -1 9 C-1.125 2.25 -1.125 2.25 0 0 Z " fill="#77F418" transform="translate(630,23)"/>
<path d="M0 0 C0.5326514 6.258654 -1.18150494 10.45108785 -4 16 C-4.99 15.67 -5.98 15.34 -7 15 C-6.8864371 13.35333797 -6.75882619 11.70763918 -6.625 10.0625 C-6.55539063 9.14597656 -6.48578125 8.22945312 -6.4140625 7.28515625 C-6.27742187 6.53105469 -6.14078125 5.77695313 -6 5 C-5.34 4.67 -4.68 4.34 -4 4 C-3.67 3.01 -3.34 2.02 -3 1 C-1 0 -1 0 0 0 Z " fill="#282643" transform="translate(158,66)"/>
<path d="M0 0 C0.99 0.33 1.98 0.66 3 1 C4.19493974 4.03173281 4.10493955 7.02459427 4.0625 10.25 C4.05347656 11.14203125 4.04445313 12.0340625 4.03515625 12.953125 C4.02355469 13.62859375 4.01195312 14.3040625 4 15 C2.02 15.99 2.02 15.99 0 17 C-1.39599137 11.24153561 -1.39599137 5.75846439 0 0 Z " fill="#36344B" transform="translate(648,62)"/>
<path d="M0 0 C0.99 0 1.98 0 3 0 C3 1.98 3 3.96 3 6 C5.64 6 8.28 6 11 6 C11 6.99 11 7.98 11 9 C7.37 9.33 3.74 9.66 0 10 C-2.21538462 4.58461538 -2.21538462 4.58461538 -1.125 1.625 C-0.75375 1.08875 -0.3825 0.5525 0 0 Z " fill="#19182B" transform="translate(102,91)"/>
<path d="M0 0 C2.31 0 4.62 0 7 0 C6.32756786 3.06797166 5.29931605 5.76841545 4 8.625 C3.649375 9.40101562 3.29875 10.17703125 2.9375 10.9765625 C2.31172863 12.3271857 1.66569856 13.66860289 1 15 C0.34 15 -0.32 15 -1 15 C-0.9278125 14.00097656 -0.855625 13.00195312 -0.78125 11.97265625 C-0.6884375 10.68230469 -0.595625 9.39195313 -0.5 8.0625 C-0.4071875 6.77472656 -0.314375 5.48695312 -0.21875 4.16015625 C-0.06142822 2.08173561 -0.06142822 2.08173561 0 0 Z " fill="#100E2E" transform="translate(163,44)"/>
<path d="M0 0 C0.66 0 1.32 0 2 0 C2 1.65 2 3.3 2 5 C2.69867187 5.04898438 3.39734375 5.09796875 4.1171875 5.1484375 C5.02726563 5.22320312 5.93734375 5.29796875 6.875 5.375 C7.77992188 5.44460937 8.68484375 5.51421875 9.6171875 5.5859375 C12 6 12 6 14 8 C10.85069107 9.04976964 8.61185544 9.10131595 5.3125 9.0625 C4.31863281 9.05347656 3.32476563 9.04445313 2.30078125 9.03515625 C1.16189453 9.01775391 1.16189453 9.01775391 0 9 C-0.33 7.68 -0.66 6.36 -1 5 C-4.96 6.98 -4.96 6.98 -9 9 C-9.33 8.34 -9.66 7.68 -10 7 C-6.6659053 4.80902348 -3.95820859 3.56545837 0 3 C0 2.01 0 1.02 0 0 Z " fill="#1F2036" transform="translate(535,92)"/>
<path d="M0 0 C0.33 0 0.66 0 1 0 C1.33 2.31 1.66 4.62 2 7 C5.96 7.33 9.92 7.66 14 8 C14 8.33 14 8.66 14 9 C8.555 9.495 8.555 9.495 3 10 C2.67 19.24 2.34 28.48 2 38 C1.67 38 1.34 38 1 38 C0.67 28.1 0.34 18.2 0 8 C-0.66 7.67 -1.32 7.34 -2 7 C-1.34 4.69 -0.68 2.38 0 0 Z " fill="#8ECC62" transform="translate(625,42)"/>
<path d="M0 0 C8.57142857 0.85714286 8.57142857 0.85714286 12 3 C11.01 3 10.02 3 9 3 C8.67 3.99 8.34 4.98 8 6 C7.030625 6.12375 6.06125 6.2475 5.0625 6.375 C3.5465625 6.684375 3.5465625 6.684375 2 7 C1.67 7.66 1.34 8.32 1 9 C0.67 6.03 0.34 3.06 0 0 Z " fill="#262339" transform="translate(83,41)"/>
<path d="M0 0 C0.33 0.99 0.66 1.98 1 3 C6.48752384 4.98484905 12.27600541 5.91739338 18 7 C18 7.33 18 7.66 18 8 C10.46782628 8.38663249 1.19022008 8.77671152 -4.78125 3.39453125 C-5.1834375 2.93433594 -5.585625 2.47414063 -6 2 C-4.68 1.67 -3.36 1.34 -2 1 C-2 1.66 -2 2.32 -2 3 C-1.34 3 -0.68 3 0 3 C0 2.01 0 1.02 0 0 Z " fill="#283734" transform="translate(416,94)"/>
<path d="M0 0 C3.33333333 0.66666667 6.66666667 1.33333333 10 2 C11.40185547 2.28037109 11.40185547 2.28037109 12.83203125 2.56640625 C13.54746094 2.70949219 14.26289062 2.85257812 15 3 C14.01 3.495 14.01 3.495 13 4 C13 4.66 13 5.32 13 6 C11.58376784 6.05447047 10.16691809 6.09300508 8.75 6.125 C7.96109375 6.14820312 7.1721875 6.17140625 6.359375 6.1953125 C3.79268059 5.9828378 2.2083933 5.28654105 0 4 C0 2.68 0 1.36 0 0 Z " fill="#1F2035" transform="translate(663,95)"/>
<path d="M0 0 C0.33 0 0.66 0 1 0 C1 5.61 1 11.22 1 17 C1.66 17.33 2.32 17.66 3 18 C2.67 19.65 2.34 21.3 2 23 C-1.01490557 24.00496852 -3.04181692 24.10335303 -6.1875 24.0625 C-7.53908203 24.04896484 -7.53908203 24.04896484 -8.91796875 24.03515625 C-9.60503906 24.02355469 -10.29210937 24.01195313 -11 24 C-11 22.68 -11 21.36 -11 20 C-10.34 20 -9.68 20 -9 20 C-9 20.66 -9 21.32 -9 22 C-6.03 21.67 -3.06 21.34 0 21 C0 14.07 0 7.14 0 0 Z " fill="#9CBB7E" transform="translate(707,77)"/>
<path d="M0 0 C7.92 0 15.84 0 24 0 C22.02 0.99 22.02 0.99 20 2 C19.67 2.33 19.34 2.66 19 3 C12.99315201 3.353344 6.89037785 3.28051692 1 2 C0.67 1.34 0.34 0.68 0 0 Z " fill="#202146" transform="translate(328,65)"/>
<path d="M0 0 C0.33 0 0.66 0 1 0 C1 8.58 1 17.16 1 26 C0.67 26 0.34 26 0 26 C-2.27507406 16.67625899 -2.27507406 16.67625899 -2 12 C-2 11.01 -2 10.02 -2 9 C-1.29550321 1.29550321 -1.29550321 1.29550321 0 0 Z " fill="#DFF9CA" transform="translate(644,59)"/>
<path d="M0 0 C1.32 1.32 2.64 2.64 4 4 C3.01 4.33 2.02 4.66 1 5 C1 6.32 1 7.64 1 9 C-0.85625 8.9690625 -0.85625 8.9690625 -2.75 8.9375 C-5.6640825 8.93233319 -8.20953327 9.06984442 -11 10 C-11 9.34 -11 8.68 -11 8 C-10.195625 7.71125 -9.39125 7.4225 -8.5625 7.125 C-5.8673532 6.26737432 -5.8673532 6.26737432 -5 4 C-3.35704805 2.63755204 -1.69175663 1.30135125 0 0 Z " fill="#0D0D28" transform="translate(280,47)"/>
<path d="M0 0 C0.33 0 0.66 0 1 0 C0.96744792 2.05078125 0.93489583 4.1015625 0.90234375 6.15234375 C0.79438816 8.01732141 0.79438816 8.01732141 2 9 C2.04063832 10.66617115 2.042721 12.33388095 2 14 C-0.25 14.75 -0.25 14.75 -3 15 C-5.3125 13.0625 -5.3125 13.0625 -7 11 C-6.34 10.34 -5.68 9.68 -5 9 C-3.68 9 -2.36 9 -1 9 C-0.67 6.03 -0.34 3.06 0 0 Z " fill="#272843" transform="translate(32,96)"/>
<path d="M0 0 C1.33333333 2.66666667 2.66666667 5.33333333 4 8 C9.61 8 15.22 8 21 8 C20.67 8.66 20.34 9.32 20 10 C17.33303573 10.50503975 14.75310279 10.88751058 12.0625 11.1875 C10.9497168 11.32961914 10.9497168 11.32961914 9.81445312 11.47460938 C4.26694139 12.1334707 4.26694139 12.1334707 2 11 C2 10.34 2 9.68 2 9 C1.34 9 0.68 9 0 9 C0 6.03 0 3.06 0 0 Z " fill="#410D5E" transform="translate(193,80)"/>
<path d="M0 0 C0.99 0.33 1.98 0.66 3 1 C2.67 1.99 2.34 2.98 2 4 C1.85426942 5.47965926 1.75336732 6.96403843 1.68359375 8.44921875 C1.64169922 9.29677734 1.59980469 10.14433594 1.55664062 11.01757812 C1.49766602 12.33918945 1.49766602 12.33918945 1.4375 13.6875 C1.39431641 14.58017578 1.35113281 15.47285156 1.30664062 16.39257812 C1.20064647 18.59490108 1.09857949 20.79733473 1 23 C0.34 23.33 -0.32 23.66 -1 24 C-1.02887236 20.18751574 -1.04675492 16.3750593 -1.0625 12.5625 C-1.07087891 11.47388672 -1.07925781 10.38527344 -1.08789062 9.26367188 C-1.09111328 8.22919922 -1.09433594 7.19472656 -1.09765625 6.12890625 C-1.10289307 5.17056885 -1.10812988 4.21223145 -1.11352539 3.22485352 C-1 1 -1 1 0 0 Z " fill="#1C1C2E" transform="translate(472,41)"/>
<path d="M0 0 C0.99 0.33 1.98 0.66 3 1 C1.73046875 2.49739583 0.4609375 3.99479167 -0.80859375 5.4921875 C-2.0878152 7.00594079 -2.0878152 7.00594079 -3 9 C2.28 9.33 7.56 9.66 13 10 C13 10.33 13 10.66 13 11 C6.73 11 0.46 11 -6 11 C-4.86382265 5.31911326 -3.71674706 4.09795189 0 0 Z " fill="#00001E" transform="translate(334,54)"/>
<path d="M0 0 C1.98 0 3.96 0 6 0 C5.67 0.66 5.34 1.32 5 2 C3.68 1.67 2.36 1.34 1 1 C1.33 5.29 1.66 9.58 2 14 C4.51083114 12.74458443 4.87125446 11.49936512 6 9 C6.33 9 6.66 9 7 9 C7 11.64 7 14.28 7 17 C5.35 17 3.7 17 2 17 C-0.25998595 13.40537669 -0.20868087 10.43404325 -0.125 6.25 C-0.09792969 4.49429688 -0.09792969 4.49429688 -0.0703125 2.703125 C-0.04710937 1.81109375 -0.02390625 0.9190625 0 0 Z " fill="#70EF1C" transform="translate(697,79)"/>
<path d="M0 0 C4.4785979 -0.17563129 8.02584132 -0.22085338 12 2 C12.33 2.99 12.66 3.98 13 5 C9.37 5 5.74 5 2 5 C1.34 3.35 0.68 1.7 0 0 Z " fill="#113410" transform="translate(694,72)"/>
<path d="M0 0 C2.97 0.33 5.94 0.66 9 1 C7.25 3 7.25 3 5 5 C3.68 5 2.36 5 1 5 C1 5.66 1 6.32 1 7 C0.34 7 -0.32 7 -1 7 C-1.33 8.65 -1.66 10.3 -2 12 C-2.66 12 -3.32 12 -4 12 C-3.52309796 10.37433394 -3.04340334 8.74948689 -2.5625 7.125 C-2.29566406 6.22007813 -2.02882813 5.31515625 -1.75390625 4.3828125 C-1 2 -1 2 0 0 Z " fill="#242436" transform="translate(123,41)"/>
<path d="M0 0 C3.6875 1 3.6875 1 6 2 C6 2.33 6 2.66 6 3 C3.60408962 3.02712351 1.20849043 3.0468982 -1.1875 3.0625 C-1.86103516 3.07087891 -2.53457031 3.07925781 -3.22851562 3.08789062 C-6.95434131 3.10606538 -10.3788042 2.89299392 -14 2 C-9.53918818 -0.97387455 -5.23354074 -0.38766968 0 0 Z " fill="#2D084B" transform="translate(527,51)"/>
<path d="M0 0 C1.22589844 0.29197266 1.22589844 0.29197266 2.4765625 0.58984375 C3.41628906 0.82380859 3.41628906 0.82380859 4.375 1.0625 C4.375 2.0525 4.375 3.0425 4.375 4.0625 C0.085 4.0625 -4.205 4.0625 -8.625 4.0625 C-7.965 3.7325 -7.305 3.4025 -6.625 3.0625 C-6.625 2.0725 -6.625 1.0825 -6.625 0.0625 C-3.99249612 -1.25375194 -2.82320944 -0.68563658 0 0 Z " fill="#0C0E25" transform="translate(278.625,96.9375)"/>
<path d="M0 0 C2 3 2 3 2 6 C1.01 6.66 0.02 7.32 -1 8 C-1.36442233 9.66014616 -1.69972883 11.32706064 -2 13 C-2.99 13.495 -2.99 13.495 -4 14 C-3.67 12.68 -3.34 11.36 -3 10 C-5.31 10 -7.62 10 -10 10 C-10 9.34 -10 8.68 -10 8 C-3.375 5 -3.375 5 0 5 C0 3.35 0 1.7 0 0 Z " fill="#20213B" transform="translate(533,78)"/>
<path d="M0 0 C0.66 0 1.32 0 2 0 C2 4.95 2 9.9 2 15 C2.66 15.33 3.32 15.66 4 16 C4 16.66 4 17.32 4 18 C3.01 18.33 2.02 18.66 1 19 C-1.50413785 12.51870203 -0.82810601 6.81508864 0 0 Z " fill="#E7FDD2" transform="translate(623,20)"/>
<path d="M0 0 C0.99 0.495 0.99 0.495 2 1 C3.53668865 1.22467831 5.07968054 1.40796805 6.625 1.5625 C7.44226563 1.64628906 8.25953125 1.73007813 9.1015625 1.81640625 C9.72804688 1.87699219 10.35453125 1.93757813 11 2 C10.01 2.495 10.01 2.495 9 3 C9 6.63 9 10.26 9 14 C8.67 14 8.34 14 8 14 C8 11.03 8 8.06 8 5 C5.36 5 2.72 5 0 5 C0 3.35 0 1.7 0 0 Z " fill="#7EA279" transform="translate(424,86)"/>
<path d="M0 0 C3 1 3 1 4.125 3.1875 C5.03631374 6.11672274 5.57643017 8.96441618 6 12 C5.34 12 4.68 12 4 12 C4 12.66 4 13.32 4 14 C3.34 14 2.68 14 2 14 C1.67 14.99 1.34 15.98 1 17 C0.375 15.125 0.375 15.125 0 13 C0.66 12.34 1.32 11.68 2 11 C1.68603757 7.04407344 1.25172182 3.75516546 0 0 Z " fill="#0E0E25" transform="translate(289,60)"/>
<path d="M0 0 C0 0.66 0 1.32 0 2 C-1.10408203 2.18175781 -1.10408203 2.18175781 -2.23046875 2.3671875 C-3.20628906 2.53476562 -4.18210937 2.70234375 -5.1875 2.875 C-6.15042969 3.03742187 -7.11335938 3.19984375 -8.10546875 3.3671875 C-10.91032604 3.98039517 -13.37224747 4.85666343 -16 6 C-16.33 4.68 -16.66 3.36 -17 2 C-11.19233704 0.4943096 -6.0018137 -0.21824777 0 0 Z " fill="#56536F" transform="translate(434,41)"/>
<path d="M0 0 C0.99 0 1.98 0 3 0 C3 0.66 3 1.32 3 2 C4.093125 1.979375 5.18625 1.95875 6.3125 1.9375 C10 2 10 2 13 3 C13 3.66 13 4.32 13 5 C13.99 5.33 14.98 5.66 16 6 C9.49686791 6.46450943 5.5825192 5.32575612 0 2 C0 1.34 0 0.68 0 0 Z " fill="#3F415C" transform="translate(326,94)"/>
<path d="M0 0 C2.31 0.33 4.62 0.66 7 1 C7 1.33 7 1.66 7 2 C9.64 2.33 12.28 2.66 15 3 C15 5.64 15 8.28 15 11 C14.67 11 14.34 11 14 11 C14 8.69 14 6.38 14 4 C10.04 4 6.08 4 2 4 C2 5.98 2 7.96 2 10 C1.67 10 1.34 10 1 10 C0.67 6.7 0.34 3.4 0 0 Z " fill="#2F4231" transform="translate(625,39)"/>
<path d="M0 0 C3.49234244 -0.09978121 6.59437148 0.22157062 10 1 C10.33 2.32 10.66 3.64 11 5 C8 6 8 6 4.375 4.75 C1 3 1 3 0 0 Z " fill="#1F1C39" transform="translate(186,95)"/>
<path d="M0 0 C2.16874252 0.50603992 3.99967627 0.99983813 6 2 C5.67 2.99 5.34 3.98 5 5 C5 4.34 5 3.68 5 3 C4.01 3 3.02 3 2 3 C4.72478774 6.36591427 8.06856792 7.44226276 12 9 C9.5332355 9.88336837 8.36140628 10.1312406 5.859375 9.22265625 C5.16328125 8.83980469 4.4671875 8.45695312 3.75 8.0625 C3.04359375 7.68222656 2.3371875 7.30195312 1.609375 6.91015625 C1.07828125 6.60980469 0.5471875 6.30945313 0 6 C0 4.02 0 2.04 0 0 Z " fill="#26263C" transform="translate(324,91)"/>
<path d="M0 0 C1.67542976 0.28604898 3.34385343 0.61781233 5 1 C5 2.65 5 4.3 5 6 C3.34385343 6.38218767 1.67542976 6.71395102 0 7 C-1 6 -1 6 -1.125 3.5 C-1 1 -1 1 0 0 Z " fill="#6AE23A" transform="translate(437,88)"/>
<path d="M0 0 C-1.73463234 4.19202815 -4.09576677 6.12949338 -8.1875 8 C-10.35236812 8.92729859 -10.35236812 8.92729859 -11 12 C-11.66 12 -12.32 12 -13 12 C-11.60991124 6.74855359 -8.1957125 4.12699328 -4 1 C-2 0 -2 0 0 0 Z " fill="#16132F" transform="translate(192,64)"/>
<path d="M0 0 C0.66 0 1.32 0 2 0 C1.5359375 1.1446875 1.5359375 1.1446875 1.0625 2.3125 C-0.14032753 6.48701907 -0.42290705 10.38435302 -0.65625 14.70703125 C-0.7696875 15.46371094 -0.883125 16.22039062 -1 17 C-1.66 17.33 -2.32 17.66 -3 18 C-3.08150744 15.93816367 -3.1394194 13.87538651 -3.1875 11.8125 C-3.22230469 10.66394531 -3.25710938 9.51539062 -3.29296875 8.33203125 C-2.97436317 4.70842376 -2.21947332 2.85360856 0 0 Z " fill="#000014" transform="translate(263,59)"/>
<path d="M0 0 C6.75 -0.125 6.75 -0.125 9 1 C9.625 3.0625 9.625 3.0625 10 5 C6.625 5.125 6.625 5.125 3 5 C2.34 4.34 1.68 3.68 1 3 C1.33 2.34 1.66 1.68 2 1 C1.34 0.67 0.68 0.34 0 0 Z " fill="#DA5BE0" transform="translate(519,56)"/>
<path d="M0 0 C0 4.62 0 9.24 0 14 C-0.66 13.67 -1.32 13.34 -2 13 C-2.6328125 10.27734375 -2.6328125 10.27734375 -3.125 6.9375 C-3.29257812 5.83277344 -3.46015625 4.72804688 -3.6328125 3.58984375 C-3.75398437 2.73519531 -3.87515625 1.88054688 -4 1 C-2 0 -2 0 0 0 Z " fill="#E2FBC8" transform="translate(625,51)"/>
<path d="M0 0 C3.96 0 7.92 0 12 0 C12 0.99 12 1.98 12 3 C8.04 3 4.08 3 0 3 C0 2.01 0 1.02 0 0 Z " fill="#0E171C" transform="translate(627,43)"/>
<path d="M0 0 C4.95 0 9.9 0 15 0 C15 7 15 7 14 10 C13.01 10 12.02 10 11 10 C11.66 7.03 12.32 4.06 13 1 C8.71 1 4.42 1 0 1 C0 0.67 0 0.34 0 0 Z " fill="#BB5DCA" transform="translate(204,74)"/>
<path d="M0 0 C0.9583374 0.00523682 1.9166748 0.01047363 2.90405273 0.01586914 C4.45576172 0.02070312 4.45576172 0.02070312 6.03881836 0.02563477 C7.12743164 0.03401367 8.21604492 0.04239258 9.33764648 0.05102539 C10.97636719 0.05779297 10.97636719 0.05779297 12.64819336 0.06469727 C15.35723144 0.07652713 18.06616248 0.09300996 20.77514648 0.11352539 C20.77514648 0.44352539 20.77514648 0.77352539 20.77514648 1.11352539 C19.71295898 1.16250977 18.65077148 1.21149414 17.55639648 1.26196289 C7.03013361 1.79712754 7.03013361 1.79712754 -3.22485352 4.11352539 C-3.22485352 0.1645514 -3.22485352 0.1645514 0 0 Z " fill="#380858" transform="translate(198.224853515625,71.886474609375)"/>
<path d="M0 0 C3.63 0 7.26 0 11 0 C11.33 0.66 11.66 1.32 12 2 C6.06 2.495 6.06 2.495 0 3 C0 3.99 0 4.98 0 6 C-0.66 6 -1.32 6 -2 6 C-1.34 4.02 -0.68 2.04 0 0 Z " fill="#C578D7" transform="translate(514,54)"/>
<path d="M0 0 C0 0.66 0 1.32 0 2 C-1.423125 2.37125 -1.423125 2.37125 -2.875 2.75 C-6.03755399 3.67274377 -6.03755399 3.67274377 -7.25 5.875 C-7.4975 6.57625 -7.745 7.2775 -8 8 C-8.875 10.1875 -8.875 10.1875 -10 12 C-12.125 12.75 -12.125 12.75 -14 13 C-11.45315907 7.69408139 -6.67128084 0 0 0 Z " fill="#0F0F29" transform="translate(665,43)"/>
<path d="M0 0 C2.31 0 4.62 0 7 0 C7 0.66 7 1.32 7 2 C8.98 2 10.96 2 13 2 C13 2.66 13 3.32 13 4 C8.07872966 4.16682272 4.49656104 4.24828052 0 2 C0 1.34 0 0.68 0 0 Z " fill="#4C4D62" transform="translate(507,97)"/>
<path d="M0 0 C0.33 1.32 0.66 2.64 1 4 C-0.65 4.66 -2.3 5.32 -4 6 C-2.84826645 3.53199953 -1.95216435 1.95216435 0 0 Z M-5 6 C-4.01 6.66 -3.02 7.32 -2 8 C-4.475 9.485 -4.475 9.485 -7 11 C-6.34 9.35 -5.68 7.7 -5 6 Z M-8 11 C-7.34 11.33 -6.68 11.66 -6 12 C-6.33 12.99 -6.66 13.98 -7 15 C-7.66 15 -8.32 15 -9 15 C-8.67 13.68 -8.34 12.36 -8 11 Z " fill="#14142C" transform="translate(322,47)"/>
<path d="M0 0 C0.33 0 0.66 0 1 0 C0.67 2.31 0.34 4.62 0 7 C-0.99 7.33 -1.98 7.66 -3 8 C-3 13.94 -3 19.88 -3 26 C-3.33 26 -3.66 26 -4 26 C-4.08706892 22.72933434 -4.14041241 19.45896635 -4.1875 16.1875 C-4.21263672 15.25873047 -4.23777344 14.32996094 -4.26367188 13.37304688 C-4.27333984 12.48037109 -4.28300781 11.58769531 -4.29296875 10.66796875 C-4.3086792 9.84578857 -4.32438965 9.0236084 -4.34057617 8.17651367 C-3.91916517 5.48341036 -2.98119767 4.79075211 -1 3 C-0.67 2.01 -0.34 1.02 0 0 Z " fill="#22144A" transform="translate(707,22)"/>
<path d="M0 0 C1.98 0.99 1.98 0.99 4 2 C4 3.65 4 5.3 4 7 C7.3 7 10.6 7 14 7 C14 7.33 14 7.66 14 8 C9.71 8 5.42 8 1 8 C0.67 5.36 0.34 2.72 0 0 Z " fill="#292841" transform="translate(141,91)"/>
<path d="M0 0 C0.33 1.32 0.66 2.64 1 4 C0.01 4 -0.98 4 -2 4 C-2.33 4.99 -2.66 5.98 -3 7 C-5.75078884 7.91692961 -7.35948913 8.10886083 -10.1875 8.0625 C-12.0746875 8.0315625 -12.0746875 8.0315625 -14 8 C-13.443125 7.731875 -12.88625 7.46375 -12.3125 7.1875 C-9.92616415 6.01729551 -9.92616415 6.01729551 -7.5625 4.375 C-4.75788862 2.87008658 -3.12996247 2.7317175 0 3 C0 2.01 0 1.02 0 0 Z " fill="#A752BA" transform="translate(218,81)"/>
<path d="M0 0 C0.99 0 1.98 0 3 0 C3.33 1.65 3.66 3.3 4 5 C7.3 5 10.6 5 14 5 C14 5.33 14 5.66 14 6 C9.05 6 4.1 6 -1 6 C-0.67 4.02 -0.34 2.04 0 0 Z " fill="#B763C6" transform="translate(514,57)"/>
<path d="M0 0 C1.79244141 0.01740234 1.79244141 0.01740234 3.62109375 0.03515625 C5.41740234 0.04869141 5.41740234 0.04869141 7.25 0.0625 C8.17683594 0.07410156 9.10367188 0.08570313 10.05859375 0.09765625 C9.72859375 1.41765625 9.39859375 2.73765625 9.05859375 4.09765625 C0.86603357 4.57030395 0.86603357 4.57030395 -2.50390625 2.59765625 C-2.97828125 2.10265625 -3.45265625 1.60765625 -3.94140625 1.09765625 C-2.94140625 0.09765625 -2.94140625 0.09765625 0 0 Z " fill="#18192D" transform="translate(563.94140625,40.90234375)"/>
<path d="M0 0 C0 0.99 0 1.98 0 3 C-0.99 3 -1.98 3 -3 3 C-3 2.34 -3 1.68 -3 1 C-11.91 1.99 -11.91 1.99 -21 3 C-16.10171797 -1.89828203 -6.42321477 -1.45982154 0 0 Z " fill="#38364A" transform="translate(437,40)"/>
<path d="M0 0 C0.99 0.33 1.98 0.66 3 1 C2.67 3.97 2.34 6.94 2 10 C1.34 10 0.68 10 0 10 C-1.125 3.375 -1.125 3.375 0 0 Z " fill="#2B2A3F" transform="translate(20,106)"/>
<path d="M0 0 C1 3 1 3 0.0625 5.1875 C-1.3625659 8.95973326 -1.13624461 11.98078413 -1 16 C-1.66 16.33 -2.32 16.66 -3 17 C-3.08126087 14.91731407 -3.13930839 12.83371342 -3.1875 10.75 C-3.22230469 9.58984375 -3.25710938 8.4296875 -3.29296875 7.234375 C-2.97982934 3.77731593 -2.34290892 2.48434437 0 0 Z " fill="#F4FDEA" transform="translate(622,16)"/>
<path d="M0 0 C0.90105469 0.02707031 1.80210937 0.05414063 2.73046875 0.08203125 C3.76107422 0.13423828 3.76107422 0.13423828 4.8125 0.1875 C1.14974467 3.20766668 -1.50671997 3.51881714 -6.1875 4.1875 C-8.56778291 5.61425173 -8.56778291 5.61425173 -10.1875 7.1875 C-7.8051174 1.87295421 -6.01707121 -0.23443135 0 0 Z " fill="#0E0B26" transform="translate(676.1875,54.8125)"/>
<path d="M0 0 C-0.57584432 2.38564077 -1.22227595 4.66682784 -2 7 C-2.99 6.67 -3.98 6.34 -5 6 C-5.33 5.01 -5.66 4.02 -6 3 C-6.99 2.34 -7.98 1.68 -9 1 C-5.94152152 0.45627049 -3.11227195 0 0 0 Z " fill="#35334A" transform="translate(176,42)"/>
<path d="M0 0 C0.66 0.99 1.32 1.98 2 3 C2.99387334 4.33790641 3.9926892 5.67218122 5 7 C4.01 7.495 4.01 7.495 3 8 C2.34 7.67 1.68 7.34 1 7 C1.33 8.32 1.66 9.64 2 11 C1.01 11.495 1.01 11.495 0 12 C-0.144375 11.195625 -0.28875 10.39125 -0.4375 9.5625 C-0.74135249 7.07896294 -0.74135249 7.07896294 -2 6 C-2 5.01 -2 4.02 -2 3 C-1.34 3 -0.68 3 0 3 C0 2.01 0 1.02 0 0 Z " fill="#20203C" transform="translate(510,80)"/>
<path d="M0 0 C1.66413655 3.3282731 0.81867406 6.99733973 0.5625 10.625 C0.51029297 11.42679688 0.45808594 12.22859375 0.40429688 13.0546875 C0.27451629 15.03679103 0.13790265 17.01844499 0 19 C-0.66 18.67 -1.32 18.34 -2 18 C-1.67 14.04 -1.34 10.08 -1 6 C-1.66 6 -2.32 6 -3 6 C-2.42655063 3.13275314 -2.1385485 2.1385485 0 0 Z " fill="#8BC464" transform="translate(695,76)"/>
<path d="M0 0 C3.72390287 2.36975637 7.09634199 4.64962537 10 8 C10 8.66 10 9.32 10 10 C8.68 9.67 7.36 9.34 6 9 C6 8.01 6 7.02 6 6 C3.66785852 4.79371992 1.50357861 3.8345262 -1 3 C-0.67 2.01 -0.34 1.02 0 0 Z " fill="#15162C" transform="translate(355,43)"/>
<path d="M0 0 C2.64 0 5.28 0 8 0 C8 0.66 8 1.32 8 2 C9.65 2 11.3 2 13 2 C13 2.33 13 2.66 13 3 C8.71 3 4.42 3 0 3 C0 2.01 0 1.02 0 0 Z " fill="#DAFBBF" transform="translate(626,17)"/>
<path d="M0 0 C2.97 0.495 2.97 0.495 6 1 C6.33 1.99 6.66 2.98 7 4 C4.69 4.33 2.38 4.66 0 5 C-0.33 4.01 -0.66 3.02 -1 2 C-0.67 1.34 -0.34 0.68 0 0 Z " fill="#262541" transform="translate(458,114)"/>
<path d="M0 0 C0.99 0 1.98 0 3 0 C3.33 2.31 3.66 4.62 4 7 C1.03 6.505 1.03 6.505 -2 6 C-1.34 4.02 -0.68 2.04 0 0 Z " fill="#0D0C2A" transform="translate(102,91)"/>
<path d="M0 0 C0 3.38023517 -0.87455622 5.83468937 -2 9 C-3.98 8.34 -5.96 7.68 -8 7 C-5.42215154 4.35247996 -3.08351902 2.05567935 0 0 Z " fill="#090A15" transform="translate(689,79)"/>
<path d="M0 0 C1.98 0 3.96 0 6 0 C6.33 2.31 6.66 4.62 7 7 C4.0625 5.75 4.0625 5.75 1 4 C0.125 1.8125 0.125 1.8125 0 0 Z " fill="#735892" transform="translate(505,56)"/>
<path d="M0 0 C0.66 0 1.32 0 2 0 C3.26264601 4.29299643 2.62950412 6.87831311 1 11 C2.98 11 4.96 11 7 11 C7.33 11.99 7.66 12.98 8 14 C7.34 14 6.68 14 6 14 C6 13.34 6 12.68 6 12 C4.02 12 2.04 12 0 12 C0 8.04 0 4.08 0 0 Z " fill="#25263E" transform="translate(573,42)"/>
<path d="M0 0 C0.66 0 1.32 0 2 0 C2 1.98 2 3.96 2 6 C0.02 6 -1.96 6 -4 6 C-2.84826645 3.53199953 -1.95216435 1.95216435 0 0 Z " fill="#9D71A8" transform="translate(691,93)"/>
<path d="M0 0 C0.66 0.33 1.32 0.66 2 1 C1.52433594 1.81210938 1.52433594 1.81210938 1.0390625 2.640625 C-0.18307974 5.4157149 -0.40943436 7.73208098 -0.625 10.75 C-0.69976562 11.73484375 -0.77453125 12.7196875 -0.8515625 13.734375 C-0.90054688 14.48203125 -0.94953125 15.2296875 -1 16 C-1.33 16 -1.66 16 -2 16 C-3.39648438 4.93554688 -3.39648438 4.93554688 -2 1 C-1.34 0.67 -0.68 0.34 0 0 Z " fill="#23074A" transform="translate(194,72)"/>
<path d="M0 0 C0.66 0 1.32 0 2 0 C2.33 1.32 2.66 2.64 3 4 C2.01 4.33 1.02 4.66 0 5 C0 5.99 0 6.98 0 8 C0.99 8.66 1.98 9.32 3 10 C1.35 9.67 -0.3 9.34 -2 9 C-2.125 5.625 -2.125 5.625 -2 2 C-1.34 1.34 -0.68 0.68 0 0 Z " fill="#152229" transform="translate(689,82)"/>
<path d="M0 0 C0.66 0.66 1.32 1.32 2 2 C1.60495559 4.9628331 0.40182371 7.38326241 -1 10 C-2.32 9.67 -3.64 9.34 -5 9 C-4.34 9 -3.68 9 -3 9 C-2.01 6.03 -1.02 3.06 0 0 Z " fill="#485F40" transform="translate(693,72)"/>
<path d="M0 0 C2.475 0.495 2.475 0.495 5 1 C5.33 2.32 5.66 3.64 6 5 C4.35 5.33 2.7 5.66 1 6 C0.67 4.02 0.34 2.04 0 0 Z " fill="#211F37" transform="translate(662,77)"/>
<path d="M0 0 C-1.175625 0.86625 -1.175625 0.86625 -2.375 1.75 C-4.80047244 3.82897637 -5.85694417 5.09040333 -7 8 C-7.33 8 -7.66 8 -8 8 C-8.1875 5.125 -8.1875 5.125 -8 2 C-4.77208445 -0.1519437 -3.71599191 -0.20086443 0 0 Z " fill="#000223" transform="translate(427,75)"/>
<path d="M0 0 C5.47826087 -0.36521739 5.47826087 -0.36521739 7.875 1.3125 C9 3 9 3 9 6 C5.56404834 4.47291037 2.88087546 2.40072955 0 0 Z " fill="#4C0B67" transform="translate(525,54)"/>
<path d="M0 0 C0.66 0 1.32 0 2 0 C2.33 2.97 2.66 5.94 3 9 C2.01 9 1.02 9 0 9 C0 6.03 0 3.06 0 0 Z " fill="#2F2B46" transform="translate(471,23)"/>
<path d="M0 0 C1.98 0.66 3.96 1.32 6 2 C6 2.66 6 3.32 6 4 C6.99 4.33 7.98 4.66 9 5 C8.01 5.495 8.01 5.495 7 6 C6.67 6.66 6.34 7.32 6 8 C4.5 6.6875 4.5 6.6875 3 5 C3 4.01 3 3.02 3 2 C2.01 2 1.02 2 0 2 C0 1.34 0 0.68 0 0 Z " fill="#262544" transform="translate(219,44)"/>
<path d="M0 0 C2.64 0 5.28 0 8 0 C8 3.3 8 6.6 8 10 C7.67 10 7.34 10 7 10 C6.6596875 8.329375 6.6596875 8.329375 6.3125 6.625 C5.39376342 2.83961627 5.39376342 2.83961627 2.375 1.5625 C1.59125 1.376875 0.8075 1.19125 0 1 C0 0.67 0 0.34 0 0 Z " fill="#82EB2E" transform="translate(630,22)"/>
<path d="M0 0 C0.66 0.33 1.32 0.66 2 1 C2 1.66 2 2.32 2 3 C3.98 3.66 5.96 4.32 8 5 C8 5.33 8 5.66 8 6 C4.625 6.1875 4.625 6.1875 1 6 C0.34 5.01 -0.32 4.02 -1 3 C-0.67 2.01 -0.34 1.02 0 0 Z " fill="#1A182A" transform="translate(18,113)"/>
<path d="M0 0 C2.64 0 5.28 0 8 0 C8 2.64 8 5.28 8 8 C7.67 8 7.34 8 7 8 C7 6.02 7 4.04 7 2 C6.01 2.33 5.02 2.66 4 3 C1.8125 2.0625 1.8125 2.0625 0 1 C0 0.67 0 0.34 0 0 Z " fill="#01150D" transform="translate(424,91)"/>
<path d="M0 0 C0.33 0.66 0.66 1.32 1 2 C-0.98 2 -2.96 2 -5 2 C-4.34 3.65 -3.68 5.3 -3 7 C-3.99 7 -4.98 7 -6 7 C-6 6.01 -6 5.02 -6 4 C-6.66 4 -7.32 4 -8 4 C-8 3.01 -8 2.02 -8 1 C-5.36 0.67 -2.72 0.34 0 0 Z " fill="#4A3466" transform="translate(510,54)"/>
<path d="M0 0 C1.15957207 3.47871621 0.77456651 4.34219645 -0.4375 7.6875 C-0.72496094 8.49574219 -1.01242188 9.30398437 -1.30859375 10.13671875 C-1.53675781 10.75160156 -1.76492187 11.36648437 -2 12 C-2.99 11.67 -3.98 11.34 -5 11 C-4.35731563 9.35293447 -3.71076198 7.70737825 -3.0625 6.0625 C-2.70285156 5.14597656 -2.34320313 4.22945312 -1.97265625 3.28515625 C-1 1 -1 1 0 0 Z " fill="#1D1C2F" transform="translate(175,45)"/>
<path d="M0 0 C1.5 1.375 1.5 1.375 3 3 C3 3.66 3 4.32 3 5 C2.01 5 1.02 5 0 5 C-0.33 5.99 -0.66 6.98 -1 8 C-1.66 8 -2.32 8 -3 8 C-2.25 2.25 -2.25 2.25 0 0 Z " fill="#1A1836" transform="translate(504,45)"/>
<path d="M0 0 C1.65 0 3.3 0 5 0 C4.67 0.66 4.34 1.32 4 2 C3.34 2 2.68 2 2 2 C1.67 5.63 1.34 9.26 1 13 C0.67 13 0.34 13 0 13 C0 8.71 0 4.42 0 0 Z " fill="#1C1B2E" transform="translate(245,19)"/>
<path d="M0 0 C1.98 1.65 3.96 3.3 6 5 C5.6875 6.875 5.6875 6.875 5 9 C4.01 9.66 3.02 10.32 2 11 C2.226875 10.071875 2.45375 9.14375 2.6875 8.1875 C2.790625 7.135625 2.89375 6.08375 3 5 C1.64555699 3.22809091 1.64555699 3.22809091 0 2 C0 1.34 0 0.68 0 0 Z " fill="#0F1020" transform="translate(360,84)"/>
<path d="M0 0 C3.86107457 2.57404971 3.94319692 4.61020259 5 9 C3.02 9 1.04 9 -1 9 C-0.649375 8.443125 -0.29875 7.88625 0.0625 7.3125 C1.21845993 4.46113217 0.80967438 2.91482778 0 0 Z " fill="#000011" transform="translate(350,56)"/>
<path d="M0 0 C1.31896465 0.92838287 2.62998689 1.86805732 3.9375 2.8125 C4.66839844 3.33457031 5.39929688 3.85664062 6.15234375 4.39453125 C8 6 8 6 9 9 C4.5937814 7.65365543 2.56922298 5.80625626 0 2 C0 1.34 0 0.68 0 0 Z " fill="#000006" transform="translate(683,55)"/>
<path d="M0 0 C0.99 0.66 1.98 1.32 3 2 C3.6875 5.625 3.6875 5.625 4 9 C3.34 9 2.68 9 2 9 C1.71125 8.030625 1.4225 7.06125 1.125 6.0625 C0.35785318 2.89335797 0.35785318 2.89335797 -2 2 C-1.34 1.34 -0.68 0.68 0 0 Z " fill="#17152E" transform="translate(229,50)"/>
<path d="M0 0 C2.89932357 2.39509338 3.50168276 4.31245243 4 8 C2.68 8 1.36 8 0 8 C0 5.36 0 2.72 0 0 Z " fill="#C6E1AF" transform="translate(640,42)"/>
<path d="M0 0 C0.66 1.32 1.32 2.64 2 4 C-0.64 4.33 -3.28 4.66 -6 5 C-5.67 3.68 -5.34 2.36 -5 1 C-3.35 0.67 -1.7 0.34 0 0 Z " fill="#312F4A" transform="translate(66,39)"/>
<path d="M0 0 C0.99 0.33 1.98 0.66 3 1 C-0.625 5.875 -0.625 5.875 -4 7 C-4.33 6.34 -4.66 5.68 -5 5 C-4.01 4.34 -3.02 3.68 -2 3 C-2 2.34 -2 1.68 -2 1 C-1.34 0.67 -0.68 0.34 0 0 Z " fill="#0D0D23" transform="translate(480,112)"/>
<path d="M0 0 C0.61875 0.33 1.2375 0.66 1.875 1 C3.91018344 2.14193235 3.91018344 2.14193235 6 2 C6 2.99 6 3.98 6 5 C5.01 5.33 4.02 5.66 3 6 C0.8125 4.5625 0.8125 4.5625 -1 3 C-0.67 2.01 -0.34 1.02 0 0 Z " fill="#131243" transform="translate(257,74)"/>
<path d="M0 0 C2.97 0.495 2.97 0.495 6 1 C6.33 2.32 6.66 3.64 7 5 C6.01 5.33 5.02 5.66 4 6 C1.8125 4.75 1.8125 4.75 0 3 C0 2.01 0 1.02 0 0 Z " fill="#201E42" transform="translate(687,56)"/>
<path d="M0 0 C2.64 0.66 5.28 1.32 8 2 C7.01 2.495 7.01 2.495 6 3 C6 3.66 6 4.32 6 5 C4.68 5 3.36 5 2 5 C1.34 3.35 0.68 1.7 0 0 Z " fill="#2E2444" transform="translate(670,96)"/>
<path d="M0 0 C0.99 0 1.98 0 3 0 C3.33 1.32 3.66 2.64 4 4 C1.03 4 -1.94 4 -5 4 C-5 3.67 -5 3.34 -5 3 C-3.35 3 -1.7 3 0 3 C0 2.01 0 1.02 0 0 Z " fill="#262643" transform="translate(111,93)"/>
<path d="M0 0 C3 0 3 0 5.6875 2.3125 C8 5 8 5 8 8 C7.34 8 6.68 8 6 8 C4.4921875 6.25 4.4921875 6.25 2.875 4 C2.33617187 3.2575 1.79734375 2.515 1.2421875 1.75 C0.62730469 0.88375 0.62730469 0.88375 0 0 Z " fill="#000006" transform="translate(261,79)"/>
<path d="M0 0 C1.8125 0.05078125 1.8125 0.05078125 4 0.3125 C4.721875 0.39113281 5.44375 0.46976563 6.1875 0.55078125 C7.0846875 0.77314453 7.0846875 0.77314453 8 1 C8.33 1.66 8.66 2.32 9 3 C2.375 3.25 2.375 3.25 -1 1 C-0.67 0.67 -0.34 0.34 0 0 Z " fill="#97A78F" transform="translate(630,38)"/>
<path d="M0 0 C2.64 0 5.28 0 8 0 C6.68 0.33 5.36 0.66 4 1 C3.67 2.32 3.34 3.64 3 5 C2.34 5 1.68 5 1 5 C0.67 3.35 0.34 1.7 0 0 Z " fill="#4B4866" transform="translate(59,33)"/>
<path d="M0 0 C2.64 0 5.28 0 8 0 C7.67 1.32 7.34 2.64 7 4 C4.69 3.34 2.38 2.68 0 2 C0 1.34 0 0.68 0 0 Z " fill="#9462A4" transform="translate(711,27)"/>
<path d="M0 0 C0.66 0.66 1.32 1.32 2 2 C1 3 1 3 -1.94140625 3.09765625 C-3.73384766 3.08025391 -3.73384766 3.08025391 -5.5625 3.0625 C-7.35880859 3.04896484 -7.35880859 3.04896484 -9.19140625 3.03515625 C-10.11824219 3.02355469 -11.04507812 3.01195313 -12 3 C-12 2.67 -12 2.34 -12 2 C-10.95199219 1.90912109 -10.95199219 1.90912109 -9.8828125 1.81640625 C-8.97273438 1.73261719 -8.06265625 1.64882812 -7.125 1.5625 C-6.22007812 1.48128906 -5.31515625 1.40007812 -4.3828125 1.31640625 C-1.98889139 1.13010715 -1.98889139 1.13010715 0 0 Z " fill="#27283C" transform="translate(348,99)"/>
<path d="M0 0 C3.02419525 0.58803797 6.01758453 1.22678118 9 2 C9 2.66 9 3.32 9 4 C5.625 3.6875 5.625 3.6875 2 3 C1.34 2.01 0.68 1.02 0 0 Z " fill="#14142D" transform="translate(263,96)"/>
<path d="M0 0 C0.33 1.32 0.66 2.64 1 4 C-2.96 4 -6.92 4 -11 4 C-11 3.67 -11 3.34 -11 3 C-10.37351563 2.95101562 -9.74703125 2.90203125 -9.1015625 2.8515625 C-8.28429687 2.77679688 -7.46703125 2.70203125 -6.625 2.625 C-5.81289062 2.55539063 -5.00078125 2.48578125 -4.1640625 2.4140625 C-1.79665809 2.17107412 -1.79665809 2.17107412 0 0 Z " fill="#110F26" transform="translate(231,95)"/>
<path d="M0 0 C0.66 0 1.32 0 2 0 C2.66 2.64 3.32 5.28 4 8 C2.68 7.67 1.36 7.34 0 7 C0 4.69 0 2.38 0 0 Z " fill="#354137" transform="translate(440,77)"/>
<path d="M0 0 C3 2 3 2 3.6875 4.125 C3.790625 4.74375 3.89375 5.3625 4 6 C1.03 5.505 1.03 5.505 -2 5 C-2 4.34 -2 3.68 -2 3 C-1.34 3 -0.68 3 0 3 C0 2.01 0 1.02 0 0 Z " fill="#0E102C" transform="translate(346,50)"/>
<path d="M0 0 C0.33 0.99 0.66 1.98 1 3 C-0.98 3.33 -2.96 3.66 -5 4 C-5.33 3.01 -5.66 2.02 -6 1 C-4.02 0.67 -2.04 0.34 0 0 Z " fill="#3D3E5A" transform="translate(74,32)"/>
<path d="M0 0 C0.66 0.99 1.32 1.98 2 3 C0.74458443 5.51083114 -0.50063488 5.87125446 -3 7 C-2.38722388 4.03824877 -1.74627478 2.61941217 0 0 Z " fill="#0D0B2A" transform="translate(168,60)"/>
<path d="M0 0 C0.33 0.99 0.66 1.98 1 3 C-1.3431213 2.74438677 -3.67843403 2.40729228 -6 2 C-6.33 1.34 -6.66 0.68 -7 0 C-3.89953913 -1.03348696 -2.94389782 -1.17755913 0 0 Z " fill="#1F2247" transform="translate(345,50)"/>
<path d="" fill="#000000" transform="translate(0,0)"/>
<path d="" fill="#000000" transform="translate(0,0)"/>
</svg>
